<svg id="visual" viewBox="0 0 900 600" width="900" height="600" xmlns="http://www.w3.org/2000/svg" xmlns:xlink="http://www.w3.org/1999/xlink" version="1.1"><rect x="0" y="0" width="900" height="600" fill="#fff"></rect><defs><linearGradient id="grad1_0" x1="33.3%" y1="0%" x2="100%" y2="100%"><stop offset="20%" stop-color="#ffffff" stop-opacity="1"></stop><stop offset="80%" stop-color="#ffffff" stop-opacity="1"></stop></linearGradient></defs><defs><linearGradient id="grad2_0" x1="0%" y1="0%" x2="66.7%" y2="100%"><stop offset="20%" stop-color="#ffffff" stop-opacity="1"></stop><stop offset="80%" stop-color="#ffffff" stop-opacity="1"></stop></linearGradient></defs><g transform="translate(900, 0)"><path d="M0 405.6C-38.5 389.6 -77 373.6 -118 363.3C-159.1 353 -202.7 348.3 -238.4 328.2C-274.1 308 -301.8 272.5 -325.2 236.3C-348.6 200.1 -367.7 163.1 -380.4 123.6C-393.1 84.1 -399.4 42.1 -405.6 0L0 0Z" fill="#f2f2f2"></path></g><g transform="translate(0, 600)"><path d="M0 -405.6C32.4 -372.4 64.8 -339.2 106.6 -328.1C148.4 -317.1 199.6 -328.2 221.6 -305C243.6 -281.8 236.4 -224.4 264.5 -192.2C292.7 -160 356.4 -153.2 385.8 -125.3C415.2 -97.5 410.4 -48.8 405.6 0L0 0Z" fill="#f2f2f2"></path></g></svg>