<svg id="visual" viewBox="0 0 900 600" width="900" height="600" xmlns="http://www.w3.org/2000/svg" xmlns:xlink="http://www.w3.org/1999/xlink" version="1.1"><rect x="0" y="0" width="900" height="600" fill="#fff"></rect><defs><linearGradient id="grad1_0" x1="33.3%" y1="100%" x2="100%" y2="0%"><stop offset="20%" stop-color="#ffffff" stop-opacity="1"></stop><stop offset="80%" stop-color="#ffffff" stop-opacity="1"></stop></linearGradient></defs><defs><linearGradient id="grad2_0" x1="0%" y1="100%" x2="66.7%" y2="0%"><stop offset="20%" stop-color="#ffffff" stop-opacity="1"></stop><stop offset="80%" stop-color="#ffffff" stop-opacity="1"></stop></linearGradient></defs><g transform="translate(900, 600)"><path d="M-351.5 0C-334.4 -26.2 -317.3 -52.5 -312 -83.6C-306.7 -114.7 -313.4 -150.8 -296.2 -171C-279 -191.2 -238 -195.7 -215 -215C-191.9 -234.3 -186.7 -268.4 -169 -292.7C-151.3 -317 -121.2 -331.4 -91 -339.6C-60.7 -347.7 -30.4 -349.6 0 -351.5L0 0Z" fill="#f2f2f2"></path></g><g transform="translate(0, 0)"><path d="M351.5 0C341.5 27.6 331.4 55.2 325.5 87.2C319.6 119.2 318 155.5 291.9 168.5C265.7 181.5 215.2 171 196.6 196.6C177.9 222.1 191.2 283.7 175.8 304.4C160.3 325.2 116.1 305.1 82 306.2C48 307.2 24 329.4 0 351.5L0 0Z" fill="#f2f2f2"></path></g></svg>