<svg id="visual" viewBox="0 0 900 600" width="900" height="600" xmlns="http://www.w3.org/2000/svg" xmlns:xlink="http://www.w3.org/1999/xlink" version="1.1"><rect x="0" y="0" width="900" height="600" fill="#a8cff3"></rect><defs><linearGradient id="grad1_0" x1="33.3%" y1="0%" x2="100%" y2="100%"><stop offset="20%" stop-color="#a8cff3" stop-opacity="1"></stop><stop offset="80%" stop-color="#a8cff3" stop-opacity="1"></stop></linearGradient></defs><defs><linearGradient id="grad2_0" x1="0%" y1="0%" x2="66.7%" y2="100%"><stop offset="20%" stop-color="#a8cff3" stop-opacity="1"></stop><stop offset="80%" stop-color="#a8cff3" stop-opacity="1"></stop></linearGradient></defs><g transform="translate(900, 0)"><path d="M0 486.7C-21.1 444.7 -42.3 402.6 -71.2 403.8C-100.1 405 -136.8 449.5 -166.5 457.4C-196.2 465.3 -218.9 436.7 -237.5 411.4C-256.1 386 -270.7 363.8 -288.6 344C-306.5 324.1 -327.7 306.4 -336.3 282.2C-344.9 257.9 -341 227.1 -356.8 206C-372.6 184.9 -408.1 173.5 -420 152.9C-431.9 132.3 -420.2 102.4 -427.4 75.4C-434.6 48.3 -460.7 24.2 -486.7 0L0 0Z" fill="#afd2f5"></path></g><g transform="translate(0, 600)"><path d="M0 -486.7C20.2 -441.4 40.3 -396 70.3 -398.8C100.3 -401.7 140.1 -452.7 165.5 -454.8C190.9 -456.9 201.9 -410.2 224.5 -388.8C247.1 -367.5 281.4 -371.5 293.1 -349.3C304.8 -327.1 294 -278.6 299.5 -251.3C305 -224 326.9 -217.9 362.9 -209.5C398.9 -201.1 449 -190.3 457.4 -166.5C465.8 -142.7 432.4 -105.8 430.4 -75.9C428.3 -46 457.5 -23 486.7 0L0 0Z" fill="#afd2f5"></path></g></svg>