<svg id="f7be232b-4845-456f-bf19-e34205cf2fd2" data-name="Layer 1" xmlns="http://www.w3.org/2000/svg" width="865.76" height="682.89" viewBox="0 0 865.76 682.89"><path d="M354.68,299.5l10.6,8.29-7.61,5.3a35.83,35.83,0,0,1-5.36-2.63,37,37,0,0,1-4.7-3.34C347.4,306.38,347.1,304.92,354.68,299.5Z" fill="#f9b499"/><rect x="307.34" y="210.37" width="124.78" height="78.48" rx="5.8" fill="#d1d3d4"/><rect x="294.11" y="210.19" width="124.78" height="79.02" rx="5.8" fill="#e6e7e8"/><rect x="332.03" y="286.04" width="93.73" height="7.87" fill="#433de4"/><path d="M306.9,218.78h70.28a5.29,5.29,0,0,1,5.29,5.29v51.68a5.29,5.29,0,0,1-5.29,5.29H307.62a5.29,5.29,0,0,1-5.29-5.29V223.35A4.57,4.57,0,0,1,306.9,218.78Z" fill="#2f2e41"/><rect x="333.26" y="228.86" width="46" height="2.36" fill="#fff"/><rect x="333.26" y="232.73" width="46" height="2.36" fill="#fff"/><rect x="333.26" y="236.17" width="46" height="2.36" fill="#fff"/><rect x="333.26" y="240.04" width="46" height="2.36" fill="#fff"/><path d="M379.48,263.47l-5.37.32.09-.06-2.07,5.19-.26.63-.1-.68-2.34-15.67.73.08-6.94,20-.5,1.44-.52-1.43-3-8.38.51.38-9.46-.4.57-.36-1.28,3-.79,1.87-.36-2L346,254.12l1.16.12-6.93,17.17-.47,1.18-.54-1.15-3.41-7.32.44.3-7.73-.5.42-.23L325,270.75l-.61,1.09-.1-1.24Q323.6,262,323,253.38l.32,0-3.17,9,2.85-9.08.24-.77.09.8q.89,8.59,1.71,17.18l-.71-.15,3.81-7.13.13-.24h.29l7.74.36h.31l.14.29,3.46,7.29-1,0L346,253.79l.79-2,.37,2.11,2.36,13.32-1.15-.13,1.3-3,.16-.39.41,0,9.46.46.38,0,.13.36,3,8.39h-1L369.45,253l.54-1.48.19,1.55,2,15.72-.36-.05,2.23-5.12,0-.07h.06Z" fill="#fff"/><rect x="199.92" y="87.57" width="1.25" height="6.98" fill="#433de4"/><path d="M214.64,101h-9.26V98.17a5.5,5.5,0,0,0-11,0V101h-7.92a5.5,5.5,0,0,0-5.5,5.5V169a5.29,5.29,0,0,0,5.3,5.29h28.58a5.29,5.29,0,0,0,5.3-5.29V106.49A5.5,5.5,0,0,0,214.64,101Z" fill="#e6e7e8"/><path d="M184.62,134.93h31.86a0,0,0,0,1,0,0v27.94a6.73,6.73,0,0,1-6.73,6.73H191.35a6.73,6.73,0,0,1-6.73-6.73V134.93A0,0,0,0,1,184.62,134.93Z" fill="#433de4"/><path d="M184.52,122.56c-.49-4.75-.61-9.51-.63-14.26V107a2,2,0,0,1,.08-.61,1.92,1.92,0,0,1,1.93-1.38c1.19,0,2.38,0,3.57.1q3.57.14,7.14.49-3.57.38-7.14.49c-1.19.06-2.38.07-3.57.11a.71.71,0,0,0-.75.52.72.72,0,0,0,0,.28v1.34C185.12,113.05,185,117.81,184.52,122.56Z" fill="#231f20" opacity="0.2"/><rect x="146.94" y="83.45" width="5" height="50.42" fill="#e6e7e8"/><path d="M745.33,616.61s14.07,5.85,25.16-2.5A22.36,22.36,0,0,0,778.64,601c1.14-5.09,2.05-12.83-.42-19.95l-8.74-3.64-16.9,9.12Z" fill="#a7a9ac"/><ellipse cx="749.22" cy="592.46" rx="19.19" ry="24.69" fill="#d1d3d4"/><ellipse cx="748.82" cy="592.46" rx="13.15" ry="17.17" fill="#a7a9ac"/><rect x="746.68" y="520.55" width="25.76" height="54.47" fill="#d1d3d4"/><path d="M778.22,581.08l-48.74,9.06a2,2,0,0,1-2.39-2V568.72a2,2,0,0,1,2-2h48.6a2.78,2.78,0,0,1,2.77,2.78v8.87A2.78,2.78,0,0,1,778.22,581.08Z" fill="#bcbec0"/><path d="M685.24,538.62l3.28,5.29a10.11,10.11,0,0,1,.75,9.12c-3.53,8.65-11.13,26.33-15.93,30.43,0,0-7.32,10.53,1.38,17.85l66.77-49a4.24,4.24,0,0,0,.71-6.18l-19-22.15Z" fill="#433de4"/><path d="M656.41,508.42,672,543.2s38.89-.92,58.11-16.47l-13.27-25.17Z" fill="#2f2e41"/><path d="M790.14,509.28v4.3a12.07,12.07,0,0,1-12.07,12.07h-36A12.07,12.07,0,0,1,730,513.58v-4.3Z" fill="#d1d3d4"/><ellipse cx="735.67" cy="574.62" rx="2.95" ry="3.89" fill="none" stroke="#ed1c24" stroke-miterlimit="10" stroke-width="0.25"/><path d="M790.14,509.28v4.3a12.07,12.07,0,0,1-12.07,12.07H762.7c10.45-4.06,8.66-16.37,8.66-16.37Z" fill="#bcbec0"/><rect x="710.63" y="505.22" width="25.76" height="54.47" fill="#d1d3d4"/><path d="M709.29,601.27s14.06,5.85,25.16-2.5a22.3,22.3,0,0,0,8.14-13.08c1.14-5.09,2.06-12.83-.42-20l-8.73-3.64-16.9,9.12Z" fill="#a7a9ac"/><path d="M753.71,506.6v4.3A12.06,12.06,0,0,1,741.64,523H705.69a12.08,12.08,0,0,1-12.08-12.07v-4.3Z" fill="#d1d3d4"/><path d="M753.71,506.6v4.3A12.06,12.06,0,0,1,741.64,523H726.28c10.44-4.06,8.65-16.37,8.65-16.37Z" fill="#bcbec0"/><rect x="258.16" y="519.84" width="25.46" height="48.03" fill="#d1d3d4"/><path d="M301.16,504v6.07a13,13,0,0,1-13,13H254.68a13,13,0,0,1-13-13V504Z" fill="#bcbec0"/><path d="M301.16,504v6.07a13,13,0,0,1-13,13H273.45c10.83-3.62,9.44-17.67,9.27-19.11Z" fill="#d1d3d4"/><path d="M259.36,602.45s17.53,3.37,25.69-7.2a30,30,0,0,0,4.33-30.5l-2.4-9.13L266.8,569.55Z" fill="#a7a9ac"/><ellipse cx="261.16" cy="577.72" rx="19.33" ry="24.5" fill="#d1d3d4"/><ellipse cx="261.28" cy="577.6" rx="12.97" ry="16.45" fill="#a7a9ac"/><path d="M290.47,564.69l-46.59,9.71a2.7,2.7,0,0,1-3.25-2.65V553.46a1.44,1.44,0,0,1,1.44-1.44h48.28a2.7,2.7,0,0,1,2.7,2.86l-.43,7.32A2.7,2.7,0,0,1,290.47,564.69Z" fill="#bcbec0"/><rect x="217.33" y="522.48" width="25.46" height="48.03" fill="#d1d3d4"/><path d="M218.05,618.06s17.53,3.37,25.7-7.2a30,30,0,0,0,4.32-30.5l-2.4-9.13L225.5,585.16Z" fill="#a7a9ac"/><path d="M260.33,506.68v6.07a13,13,0,0,1-13,13H213.85a13,13,0,0,1-13-13v-6.07Z" fill="#bcbec0"/><path d="M260.33,506.68v6.07a13,13,0,0,1-13,13H232.62c10.83-3.62,9.44-17.67,9.27-19.11Z" fill="#d1d3d4"/><path d="M568.56,552.81v6a8.41,8.41,0,0,1-3.77,7c-7.38,4.88-23.8,15.39-32.83,18.52,0,0-10.07,0-9.15,14.18h51.7l7.78-4.12V599h20.59a6.86,6.86,0,0,0,6.86-6.86v-42.1Z" fill="#433de4"/><path d="M620.27,547a6.45,6.45,0,0,1-4.84,6.26,119.61,119.61,0,0,1-59,0,6.45,6.45,0,0,1-4.84-6.26V507.05h68.64Z" fill="#2f2e41"/><path d="M65.67,282.82s-10.74,14.16.89,34L137,449.5s10.94,63.62,63.61,63.62l603.47-1.63a23.67,23.67,0,0,0,23.62-23.68V420.66Z" fill="#a7a9ac"/><path d="M829.81,431.79H798.17L796,403.43l-4.76-60.82h14.36a15.65,15.65,0,0,1,14.13,8.91l22.81,48a20.66,20.66,0,0,1,1.41,3.95,18.16,18.16,0,0,1,.47,2.75C845.07,413.44,844.61,428.39,829.81,431.79Z" fill="#433de4"/><path d="M829.81,431.79H798.17L796,403.43H843.9a18.16,18.16,0,0,1,.47,2.75C845.07,413.44,844.61,428.39,829.81,431.79Z" fill="#231f20" opacity="0.2"/><path d="M105.92,254.11s-27.37,14.22-40.25,28.71l76.81,136.49A247,247,0,0,1,158.39,453c6.26,16.59,21.54,43.6,52.71,33.71h220l-32.2-59.56-77.81-9.66-114.31-7L119.87,250.62Z" fill="#bcbec0"/><path d="M205.2,454.54,184,468.76,72.3,271.1a12.65,12.65,0,0,1,4.92-17.26,12.61,12.61,0,0,1,17.13,4.89L200,445.29Z" fill="#e6e7e8"/><path d="M200,445.29l-3.62,4.15-102.23-180c-8.8-14.22-18.82-9.47-23.33-6.14a12.64,12.64,0,0,1,23.56-4.54Z" fill="#d1d3d4"/><path d="M158.19,129.29v98.33H141.53V129.29a8.33,8.33,0,0,1,8.33-8.34,8,8,0,0,1,1.56.15,8.32,8.32,0,0,1,6.77,8.19Z" fill="#433de4"/><path d="M158.19,129.29v98.33h-4.58V131c-.15-5-1.09-8-2.19-9.85a8.32,8.32,0,0,1,6.77,8.19Z" fill="#231f20" opacity="0.2"/><path d="M220.28,80.12a9.15,9.15,0,0,1-9.17,9.16H150.69a9.17,9.17,0,0,1,0-18.33h60.42a8.17,8.17,0,0,1,1.65.16A9.16,9.16,0,0,1,220.28,80.12Z" fill="#433de4"/><path d="M220.28,80.12a9.15,9.15,0,0,1-9.17,9.16H150.69A9.12,9.12,0,0,1,143.63,86h61.65c8.52,0,8.34-9.34,7.48-14.84A9.16,9.16,0,0,1,220.28,80.12Z" fill="#231f20" opacity="0.2"/><rect x="307.47" y="226.93" width="21.5" height="17.41" rx="1.29" fill="#fff"/><polygon points="195 208.05 120.59 231.66 213.97 401.6 330.24 400.88 237.22 204.11 195 208.05" fill="#e6e7e8"/><path d="M120.59,231.66s-22.54,8.59-15.74,21.11l84.43,157.41s10.38,18.61,29.69,21.47l114-1.25-2.68-29.52L214,401.6Z" fill="#d1d3d4"/><path d="M235.46,230.5l-2.4,30.28-31.48,57c-19.18-10.5-43.77-69.86-43.77-69.86a18.1,18.1,0,0,1-7.49-15c-.41-8.83,13-8.79,21.44-7.9a23.18,23.18,0,0,0,12.51-2.33A51.37,51.37,0,0,1,194.4,219a37.4,37.4,0,0,1,4.18-.82Z" fill="#bcbec0"/><path d="M161.41,244.88s2.1,19.49,15.59,27C177,271.87,179.4,252.68,161.41,244.88Z" fill="#d1d3d4"/><path d="M178.5,273.06s2.1,19.49,15.59,27C194.09,300.05,196.49,280.86,178.5,273.06Z" fill="#d1d3d4"/><path d="M235.46,230.5l-2.4,30.28-31.48,57C186,294.35,217.77,256,217.77,256c5.4-11.39-5.69-19.2-5.69-19.2A43.64,43.64,0,0,1,194.4,219a37.4,37.4,0,0,1,4.18-.82Z" fill="#d1d3d4"/><path d="M638.45,207.87s9.23,7.68,13.53,10.19c0,0-14.39-1.38-20.83-.66,1-1.54,1.63-3.75,2.74-5.32S637.38,209.33,638.45,207.87Z" fill="#433de4"/><path d="M638.45,207.87s9.23,7.68,13.53,10.19c0,0-14.39-1.38-20.83-.66,1-1.54,1.63-3.75,2.74-5.32S637.38,209.33,638.45,207.87Z" fill="#231f20" opacity="0.2"/><path d="M653.48,218.6l14.31,63.15C649.55,278,559.92,300,559.92,300c-3.22,0-5.36-5.37-5.36-5.37l-5.37-50.44c-14.49.54-20.93-7.51-20.93-7.51l-16.64-23.08L518.37,171a18,18,0,0,1,3.86-8.6l12.09-14.78,1.28-1.57h0l6.07-7.41,23.53-16.3,10.56,1,2,.19,39.25,3.7a11.32,11.32,0,0,1,6.51,2.78c30.33,26.74,52,59,52,59-7.72,1.89-9,1.38-12.6,2.67A60.31,60.31,0,0,0,638.63,208a48.75,48.75,0,0,0-6.61,9c13.13-.65,18.55.52,20.51,1.2l.06,0c.49.23.79.35.86.38Z" fill="#433de4"/><path d="M653.45,218.59c-.07,0-.37-.15-.86-.38A3.79,3.79,0,0,1,653.45,218.59Z" fill="#433de4"/><path d="M539.44,130.44s6.3,26.66,20.35,33.33c0,0,8.29-24,5.41-41.43a25.8,25.8,0,0,1-4-15l-18,2.52Z" fill="#f9b499"/><path d="M539.44,130.44s2.52,9.19,4.68,13.51c0,0,17.29-5.4,16.75-35.3Z" fill="#f7a48b"/><path d="M675.57,189s-.84,6.79-5.13,8.22l-7.57-5.58A94.42,94.42,0,0,1,675.57,189Z" fill="#433de4"/><path d="M675.57,189s-.84,6.79-5.13,8.22l-7.57-5.58A94.42,94.42,0,0,1,675.57,189Z" fill="#231f20" opacity="0.2"/><path d="M764.92,157.51s5.1,2.15-5.63,8.33c0,0-11.71,10.93-32.13,14.73a5.15,5.15,0,0,0-2.83,1.52c-5.68,6.07-31,32.88-42.85,41.43,0,0-4.62,3.91-13.9,1.73a31.34,31.34,0,0,1-5.08-1.65,49.64,49.64,0,0,1-9-5h0c-.07,0-.37-.15-.86-.38l-.06,0a39.27,39.27,0,0,1-4.06-2.29l-.05,0a62.54,62.54,0,0,1-9.6-7.65,1.7,1.7,0,0,1-.19-.18A60.31,60.31,0,0,1,663,191.67l6.79,4.22L713,170.52a5.66,5.66,0,0,0,2.57-3.21,26.91,26.91,0,0,1,8.32-12.74l8.47-6.87a2,2,0,0,1,2.73.22,1.92,1.92,0,0,1,.51,1.34,1.94,1.94,0,0,1-.44,1.24c-1.76,2.17-5.2,6.56-6.64,9.49a.69.69,0,0,0,.9.92c5-2.13,21.18-9.35,28.27-16.67a2.28,2.28,0,0,1,3.92,1.74,7.14,7.14,0,0,1-.69,2.14s7-4.56,5.91,2.15C766.8,150.27,772.44,152.15,764.92,157.51Z" fill="#f9b499"/><path d="M667.58,225.25a43.61,43.61,0,0,1-5.08-1.65,70.79,70.79,0,0,1-14-7.7l-.05,0a58.49,58.49,0,0,1-9.6-7.65,1.7,1.7,0,0,1-.19-.18A60.31,60.31,0,0,1,663,191.67l6.79,4.22C644.93,201.16,667.58,225.25,667.58,225.25Z" fill="#f7a48b"/><polygon points="480.67 217.71 416.62 217.37 419.03 130.93 483.43 131.96 480.67 217.71" fill="#e6e7e8"/><polygon points="423.51 134.37 421.1 211.51 478.26 212.2 480.33 135.75 423.51 134.37" fill="#fff"/><path d="M466.34,141.69h0l-31.6-.43a3,3,0,0,1-2.9-2.92l0-4.18a2.86,2.86,0,0,1,.87-2.1,3,3,0,0,1,2.1-.86l31.63.35a2.94,2.94,0,0,1,2.9,2.94v4.26a2.94,2.94,0,0,1-2.93,2.94Zm-31.63-9.86a2.32,2.32,0,0,0-2.32,2.32l0,4.18a2.32,2.32,0,0,0,2.28,2.31l31.6.42h0a2.3,2.3,0,0,0,1.63-.66,2.33,2.33,0,0,0,.69-1.65v-4.26a2.33,2.33,0,0,0-2.29-2.32l-31.63-.34Z" fill="#2f2e41"/><rect x="425.9" y="141.95" width="17.44" height="22" fill="#e6e7e8"/><rect x="446.15" y="146.24" width="29.65" height="2.55" fill="#e6e7e8"/><rect x="446.29" y="150.34" width="29.65" height="2.55" fill="#e6e7e8"/><rect x="446.36" y="154.43" width="29.65" height="2.55" fill="#e6e7e8"/><rect x="446.49" y="158.52" width="29.65" height="2.55" fill="#e6e7e8"/><rect x="425.69" y="169.45" width="29.65" height="2.55" fill="#e6e7e8"/><rect x="425.83" y="173.54" width="29.65" height="2.55" fill="#e6e7e8"/><rect x="425.9" y="177.64" width="29.65" height="2.55" fill="#e6e7e8"/><rect x="426.03" y="181.73" width="29.65" height="2.55" fill="#e6e7e8"/><rect x="446.76" y="187.97" width="29.65" height="2.55" fill="#e6e7e8"/><rect x="446.89" y="192.06" width="29.65" height="2.55" fill="#e6e7e8"/><rect x="446.96" y="196.15" width="29.65" height="2.55" fill="#e6e7e8"/><rect x="447.09" y="200.24" width="29.65" height="2.55" fill="#e6e7e8"/><path d="M261.6,231.9s13.85,3.3,12.19,20.53c0,0-10.39-7.23-13.37-19.17Z" fill="#433de4"/><path d="M357.67,313.09c-13.27,8.29-17.59,30.83-17.59,30.83l-54.35,26.19L206.24,289a3.66,3.66,0,0,1-.94-3.48c4.21-16,23.08-36.73,23.08-36.73l4-4.63,15.58,3.64,24.87-5.31a18.06,18.06,0,0,1,7.28.34C297.27,247,312.57,273,312.57,273c7.13,14.45,24.07,27.07,35,34.13C353.5,310.92,357.67,313.09,357.67,313.09Z" fill="#433de4"/><path d="M214,401.6l10-34.53s9.72,10.21,16.67,15.3l2.65,2.41Z" fill="#231f20" opacity="0.2"/><path d="M440.05,317c-20.6,4.88-38,46.09-38,46.09-9.84,25-16.73,35.83-20.93,40.46a27.3,27.3,0,0,0-7.22,17.1c-.05,1-.05,1.54-.05,1.54l-1.1,52.63,0,1.36a6.63,6.63,0,0,1-6.55,6.49l-64.74.87a5.73,5.73,0,0,1-5.67-5.72V400.55l44.27-56.63c5.24-27.88,25.2-36.13,25.2-36.13C410.89,298,440.05,317,440.05,317Z" fill="#f1f2f2"/><path d="M778.52,496.05l-43.29,1.43c-65.84,9.3-139.53-2.14-139.53-2.14L507,487.82a198.56,198.56,0,0,0-26-1.65,253.36,253.36,0,0,0-68.27,9.69c-27,5-33.81-.89-33.81-.89-4-1.58-5.62-14.91-6.1-20.11l1.1-52.63s0-.56.05-1.54a27.3,27.3,0,0,1,7.22-17.1c4.2-4.63,11.09-15.42,20.93-40.46a158.93,158.93,0,0,1,14.8-26.51c6.45-9.1,14.52-17.54,23.16-19.58a805.76,805.76,0,0,0,119.88-17l61.17-13.25c2.74-.61,5.33-1.17,7.79-1.64,29-5.8,38.9-3.37,38.9-3.37a93.73,93.73,0,0,1,22.61,2.76c42.19,9.9,88.83,43,88.83,43,17.15,8.43,23.67,28.24,25.31,34.32a19.62,19.62,0,0,1,.59,3.13l9.16,85.62C818.23,488.54,778.52,496.05,778.52,496.05Z" fill="#433de4"/><path d="M778.52,496.05l-43.29,1.43c-65.84,9.3-139.53-2.14-139.53-2.14L507,487.82a198.56,198.56,0,0,0-26-1.65,253.36,253.36,0,0,0-68.27,9.69c-27,5-33.81-.89-33.81-.89-4-1.58-5.62-14.91-6.1-20.11l1.1-52.63s0-.56.05-1.54a27.3,27.3,0,0,1,7.22-17.1c4.2-4.63,11.09-15.42,20.93-40.46a158.93,158.93,0,0,1,14.8-26.51c6.45-9.1,14.52-17.54,23.16-19.58a805.76,805.76,0,0,0,119.88-17l61.17-13.25c2.74-.61,5.33-1.17,7.79-1.64,29-5.8,38.9-3.37,38.9-3.37a93.73,93.73,0,0,1,22.61,2.76c42.19,9.9,88.83,43,88.83,43,17.15,8.43,23.67,28.24,25.31,34.32a19.62,19.62,0,0,1,.59,3.13l9.16,85.62C818.23,488.54,778.52,496.05,778.52,496.05Z" fill="#fff" opacity="0.3"/><path d="M705.36,368.14s-50.91,3.49-71.39,28.77a70.27,70.27,0,0,1-7.7,8.29c-11.4,10.23-40.63,32.52-90,45.06,0,0-46.09,15.93-55.34,35.91a253.36,253.36,0,0,0-68.27,9.69c-27,5-33.81-.89-33.81-.89-4-1.58-5.62-14.91-6.1-20.11l1.1-52.63s0-.56.05-1.54a27.3,27.3,0,0,1,7.22-17.1c4.2-4.63,11.09-15.42,20.93-40.46a158.93,158.93,0,0,1,14.8-26.51c4.06,2.22,12.61,5.15,27.95,3.48,0,0,10.16-5.08,34,3.55,0,0,7.83,4.37,34.65-5.29,0,0,78.62-19.05,104.38-41.05a31.41,31.41,0,0,0,11-12.2c29-5.8,38.9-3.37,38.9-3.37a93.73,93.73,0,0,1,22.61,2.76L715,320.38S743.46,361.17,705.36,368.14Z" fill="#fff" opacity="0.3"/><rect x="49.4" y="452.77" width="125.75" height="174.76" fill="#2f2e41"/><path d="M23.6,452.77H49.4a0,0,0,0,1,0,0V627.54a0,0,0,0,1,0,0H23.6a2.4,2.4,0,0,1-2.4-2.4v-170A2.4,2.4,0,0,1,23.6,452.77Z" fill="#2f2e41"/><path d="M23.6,452.77H49.4a0,0,0,0,1,0,0V627.54a0,0,0,0,1,0,0H23.6a2.4,2.4,0,0,1-2.4-2.4v-170A2.4,2.4,0,0,1,23.6,452.77Z" fill="#231f20" opacity="0.2"/><rect x="59.57" y="461.1" width="103.57" height="34.67" fill="#fff" opacity="0.52"/><rect x="143.25" y="461.1" width="19.88" height="34.67" fill="#231f20" opacity="0.2"/><rect x="59.57" y="520.74" width="103.57" height="34.67" fill="#fff" opacity="0.52"/><rect x="143.25" y="520.74" width="19.88" height="34.67" fill="#231f20" opacity="0.2"/><rect x="59.57" y="579.46" width="103.57" height="34.67" fill="#fff" opacity="0.52"/><rect x="142.79" y="579.46" width="19.88" height="34.67" fill="#231f20" opacity="0.2"/><path d="M59.36,428.22H99.91a0,0,0,0,1,0,0v19.28a5.26,5.26,0,0,1-5.26,5.26h-30a5.26,5.26,0,0,1-5.26-5.26V428.22A0,0,0,0,1,59.36,428.22Z" fill="#433de4"/><path d="M60.65,422.79s-1.38-2.6-7.86-7.67a47.4,47.4,0,0,1-12.86-15.23c-4-7.54-5.59-15.9,7-15.32,0,0-7.23-32.29,4.14-35.13,0,0,11.88-4.13,19.11,17.56,0,0,14.21-16,12.14,18.08l-.78,27.38-8,10.33Z" fill="#433de4"/><path d="M60.65,422.79s-1.38-2.6-7.86-7.67a47.4,47.4,0,0,1-12.86-15.23c-4-7.54-5.59-15.9,7-15.32,0,0-7.23-32.29,4.14-35.13,0,0,11.88-4.13,19.11,17.56,0,0,14.21-16,12.14,18.08l-.78,27.38-8,10.33Z" fill="#231f20" opacity="0.2"/><path d="M73.55,423.51c-1.7-5.28-3.09-10.75-4.54-16.15l-4.22-16.29-3.07-12.2A7.36,7.36,0,0,0,64.46,377a16.41,16.41,0,0,0,2.06-2.67,34.64,34.64,0,0,0,3-5.93A34.73,34.73,0,0,1,66,374a15.86,15.86,0,0,1-2.2,2.35,6.37,6.37,0,0,1-2.39,1.37l-3-12.12,0,.1a6.64,6.64,0,0,0,2.47-3,13.2,13.2,0,0,0,1-3.55,12.68,12.68,0,0,1-1.57,3.25,6,6,0,0,1-2.25,2.09l-1.51-6,1.4,6.05-.12.06.25.5,1.62,7a21.23,21.23,0,0,1-2.64-.14,18.76,18.76,0,0,1-2.88-.55,16,16,0,0,1-5.33-2.53A16.21,16.21,0,0,0,54,372a19.68,19.68,0,0,0,2.92.89,25.46,25.46,0,0,0,3,.47v-.27l4.21,18.17,1.31,5.48a34.53,34.53,0,0,1-9.68-2.31,55.2,55.2,0,0,1-9.41-4.72,56,56,0,0,0,9.17,5.3,35.22,35.22,0,0,0,10.23,3l2.3,9.6q.83,3.35,1.66,6.69a49.57,49.57,0,0,1-5.12-1.09,48.13,48.13,0,0,1-5.59-1.85,50.88,50.88,0,0,1-5.36-2.47,39.29,39.29,0,0,1-5-3.12,39.2,39.2,0,0,0,4.87,3.39,51.74,51.74,0,0,0,5.26,2.78,50.94,50.94,0,0,0,5.57,2.17,53.47,53.47,0,0,0,5.72,1.51c.7,2.78,1.45,5.55,2.28,8.31Z" fill="#231f20" opacity="0.2"/><path d="M538.08,176.52l-1.23.26a137.25,137.25,0,0,1-2.53-29.15l1.28-1.57A138.14,138.14,0,0,0,538.08,176.52Z" fill="#fff"/><path d="M536.18,212.46c-.32-1-7.87-24.56-3-33.13a5.84,5.84,0,0,1,3.91-3,6.63,6.63,0,0,1,5.57,1.46c5.59,4.45,10,12.43,13.42,24.37l-1.21.35c-3.36-11.69-7.61-19.45-13-23.74a5.41,5.41,0,0,0-4.52-1.22,4.66,4.66,0,0,0-3.1,2.41c-4.61,8.09,3,31.89,3.1,32.12Z" fill="#fff"/><circle cx="537.4" cy="214.02" r="2.07" fill="#fff"/><circle cx="556.13" cy="204.02" r="2.07" fill="#fff"/><path d="M594,166.7v14.19h-1.26V166.73c-.91-24.92-10.54-37.65-17-43.41l2,.19C584.35,129.91,593.1,142.86,594,166.7Z" fill="#fff"/><circle cx="592.84" cy="186.8" r="6.52" fill="#fff"/><circle cx="592.84" cy="186.8" r="4.11" fill="#e6e7e8"/><ellipse cx="534.94" cy="99.03" rx="25.19" ry="35.54" transform="translate(-8.91 112.91) rotate(-11.95)" fill="#f9b499"/><path d="M509.21,94.46s-5.67-4-4.83-13.67a23.61,23.61,0,0,1,5.11-12.49c5.89-7.45,18.37-19.57,30.85-8.46,0,0,23.14-8.07,25.56,31.37,0,0-6.25-4.27-8.39,4.05,0,0-3.61,1.58-5.66-3.74a36.86,36.86,0,0,0-2.1-4.72c-3-5.52-9.86-15.85-15.32-9l-3.36,3.85c-1.12,1.27-2.15,2.62-3.16,4-2.06,2.8-7.72,8.07-16.85-1.28a.44.44,0,0,0-.73.17A35.9,35.9,0,0,0,509.21,94.46Z" fill="#2f2e41"/><ellipse cx="562.61" cy="98.43" rx="5.38" ry="9.19" fill="#f9b499"/><path d="M760.89,148.12s-5.47,5.25-17.06,10.5" fill="none" stroke="#f7a48b" stroke-miterlimit="10"/><path d="M766.8,150.27s-9.63,8.35-19,11.63" fill="none" stroke="#f7a48b" stroke-miterlimit="10"/><path d="M764.92,157.51a57.88,57.88,0,0,1-13.87,8.11" fill="none" stroke="#f7a48b" stroke-miterlimit="10"/><path d="M543,244s-21.67,20.34-31.22,14.87c0,0-4.46-1.73-10.9-14.62l-20.14-36.48.07-17.53s-2.48-10.66,1.24-16.36c0,0,.47-1.74-1.24-1.8a3,3,0,0,0-2.37,1.13c-1,1.18-3.18,3-5.31,1.13a2.07,2.07,0,0,1-.43-2.45c1.44-2.92,5.63-9.85,12.7-9a2.89,2.89,0,0,1,1,.33c1.08.61,3.14,2.52,3.3,8.15l.66,16.4a5.38,5.38,0,0,0,1.36,3.37l19.9,22.43,16.64,23.08S532.31,242.25,543,244Z" fill="#f9b499"/><path d="M273.8,252.44a9.14,9.14,0,0,1-9,6.62L252.91,240.5s-18.23-1-25.52-3.32a31.2,31.2,0,0,0-6.64-8l13.6-12.93,24.86,6,.32,7.95a24.72,24.72,0,0,0,1.36,4.67,43.62,43.62,0,0,0,12.79,17.46Z" fill="#f9b499"/><path d="M259.87,230.83s.4,3.69,3.62,9.33c0,0-24.48,3.35-33.47-10.33Z" fill="#f7a48b"/><path d="M228.38,248.79l-1-11.6a178.77,178.77,0,0,0,25.52,3.31l11.93,18.56S251.25,259.06,228.38,248.79Z" fill="#433de4"/><path d="M228.38,248.79l-1-11.6a178.77,178.77,0,0,0,25.52,3.31l11.93,18.56S251.25,259.06,228.38,248.79Z" fill="#fff" opacity="0.3"/><path d="M273.8,252.44l-.12-.09a43.62,43.62,0,0,1-12.79-17.46c-.18-.52-.33-1.07-.47-1.62l1.18-1.37S275.45,235.19,273.8,252.44Z" fill="#fff" opacity="0.3"/><path d="M260.53,182.49a22.08,22.08,0,0,1,.68,11.63l-10.62-5.66,2.32-10Z" fill="#2f2e41"/><path d="M260.53,182.49a22.08,22.08,0,0,1,.68,11.63l-10.62-5.66,2.32-10Z" fill="#231f20" opacity="0.2"/><ellipse cx="240.79" cy="207.04" rx="24.17" ry="32.9" transform="translate(-73.41 160.92) rotate(-32.34)" fill="#f9b499"/><path d="M220.35,201a9.61,9.61,0,0,0,4.41-9.19,2.34,2.34,0,0,1,1.76-2.54,26.42,26.42,0,0,1,4.82-.71,3.59,3.59,0,0,1,1.79.37c1.93,1,7.47,2.77,16.13-1.43,0,0,8.95,2,11.27-5,0,0,4-6.3-2.65-6.3,0,0,3-8.95-11.6-7,0,0,1.66-17.57-25.19-7.29,0,0-21.88-6.63-22.87,20.22,0,0-5.64,3.31-2.32,10.28,0,0-10.28,6.29,2.65,19.22,0,0-2.65,17.24,18.23,19.23l5-11.27s5.32-.94-2-16.49A1.74,1.74,0,0,1,220.35,201Z" fill="#2f2e41"/><ellipse cx="218.24" cy="224.53" rx="6.3" ry="8.12" transform="translate(-89.09 164.58) rotate(-34.78)" fill="#f9b499"/><path d="M355.18,299.84c-2,1.2-6,4-7.57,7.28-11-7.06-27.91-19.68-35-34.13,0,0-15.3-26-32.48-30.17,0,0,22.88-1.66,49.06,26.85l26.26,28.49A1.1,1.1,0,0,1,355.18,299.84Z" fill="#433de4"/><path d="M355.18,299.84c-2,1.2-6,4-7.57,7.28-11-7.06-27.91-19.68-35-34.13,0,0-15.3-26-32.48-30.17,0,0,22.88-1.66,49.06,26.85l26.26,28.49A1.1,1.1,0,0,1,355.18,299.84Z" fill="#231f20" opacity="0.2"/><path d="M404.07,325.54c-5.75,4.41-16.58,8.1-16.58,8.1-9.94,1.33-10.6,5.31-10.6,5.31-7,11.52-16.69,14.7-21.54,15.58a12,12,0,0,0-5.76,2.75L306,395.3c-11.61,11.93-23.87,4-23.87,4L244,377.07l3-10.81,7.63-27.65,21.22,11.94,15.57,12.59,51.05-22.2c4.11-4.57,13.58-15.75,19.06-22.26a12.72,12.72,0,0,1,10.75-4.45C385.84,315.37,394,317,399,318.58a25.82,25.82,0,0,1,4.73,1.95A3,3,0,0,1,404.07,325.54Z" fill="#f9b499"/><path d="M209.11,286.8a5.87,5.87,0,0,0-6,3.66c-3.27,8.34-9.09,28.88,2.4,49.82,0,0,15.25,28.83,35.14,42.09,0,0,17.71-25.12,39.28-33.76a1.79,1.79,0,0,0,.26-3.21,63.1,63.1,0,0,1-16.28-14.24A59.09,59.09,0,0,1,257.25,321C252.63,312.26,237.88,289.36,209.11,286.8Z" fill="#433de4"/><path d="M209.11,286.8a5.87,5.87,0,0,0-6,3.66c-3.27,8.34-9.09,28.88,2.4,49.82,0,0,15.25,28.83,35.14,42.09,0,0,17.71-25.12,39.28-33.76a1.79,1.79,0,0,0,.26-3.21,63.1,63.1,0,0,1-16.28-14.24A59.09,59.09,0,0,1,257.25,321C252.63,312.26,237.88,289.36,209.11,286.8Z" fill="#231f20" opacity="0.2"/><path d="M802.49,459.91A12.91,12.91,0,0,1,789.6,472.8H206.82V447H789.6a12.87,12.87,0,0,1,12.89,12.88Z" fill="#e6e7e8"/><path d="M802.49,459.91A12.91,12.91,0,0,1,789.6,472.8H206.82v-5.66H781.43A15.59,15.59,0,0,0,797,449.76l-.06-.48A12.89,12.89,0,0,1,802.49,459.91Z" fill="#d1d3d4"/><ellipse cx="198.64" cy="462.08" rx="21.29" ry="21.68" fill="#a7a9ac"/><polygon points="480.7 376.53 451.82 458.36 468.07 458.36 498.15 375.93 480.7 376.53" fill="#e6e7e8"/><ellipse cx="458.06" cy="461.64" rx="10.79" ry="12.44" fill="#a7a9ac"/><circle cx="195.09" cy="462.87" r="19.32" fill="#d1d3d4"/><circle cx="195.88" cy="462.47" r="9.46" fill="#e6e7e8"/><ellipse cx="455.36" cy="462.84" rx="10.79" ry="12.44" fill="#d1d3d4"/><ellipse cx="454.46" cy="461.49" rx="5.46" ry="6.3" fill="#e6e7e8"/><ellipse cx="219.85" cy="593.33" rx="19.33" ry="24.5" fill="#d1d3d4"/><ellipse cx="219.97" cy="593.21" rx="12.97" ry="16.45" fill="#a7a9ac"/><path d="M249.17,580.3,202.58,590a2.71,2.71,0,0,1-3.26-2.65V569.07a1.44,1.44,0,0,1,1.44-1.44h48.29a2.69,2.69,0,0,1,2.69,2.86l-.43,7.32A2.7,2.7,0,0,1,249.17,580.3Z" fill="#bcbec0"/><ellipse cx="713.18" cy="577.13" rx="19.19" ry="24.69" fill="#d1d3d4"/><ellipse cx="712.78" cy="577.13" rx="13.15" ry="17.17" fill="#a7a9ac"/><path d="M742.17,565.74l-48.74,9.06a2,2,0,0,1-2.38-2V553.39a2,2,0,0,1,2-2h48.61a2.77,2.77,0,0,1,2.77,2.77V563A2.77,2.77,0,0,1,742.17,565.74Z" fill="#bcbec0"/><ellipse cx="699.63" cy="559.28" rx="2.95" ry="3.89" fill="#d1d3d4"/><path d="M73.57,422.79s-17-58.63,8.78-37.71c0,0,6.71-36.93,23.76-43.39,0,0,9-5.17,12.4,7.75,0,0,16.27-.26,11.62,18.34,0,0-4.39,17.56-14.46,27.89,0,0,9,2.25,6.26,10.36a12.55,12.55,0,0,1-3.24,5c-3.18,3.09-10.56,9.65-17.87,11.79Z" fill="#433de4"/><path d="M106.86,393.79a46.76,46.76,0,0,1-5.39,1.09,44.88,44.88,0,0,1-5.28.42l1.86-4.78-.26-.21s.41-.07.38-.1l.07-.17,5.7-14.43a30.83,30.83,0,0,0,3.61-.76,34.56,34.56,0,0,0,3.57-1.16,19.5,19.5,0,0,0,6.36-3.85,19.27,19.27,0,0,1-6.57,3.26,34.22,34.22,0,0,1-6.46,1.22l.71-1.79q1-2.43,2-4.86l.07-.08,0,0c1.67-4.16,3.36-8.32,5.15-12.44-1.85,4.07-3.59,8.17-5.33,12.29a26.15,26.15,0,0,1-3.47-3.35,19.52,19.52,0,0,1-2.82-4.29,20,20,0,0,0,2.32,4.67,29.46,29.46,0,0,0,3.55,4.2l.09-.45-1.78,4.23-.81,1.93h0l-.27.67-6.12,14.75a33.74,33.74,0,0,1-5.88-7A63.2,63.2,0,0,1,87,374a63.77,63.77,0,0,0,4.25,9.15A34,34,0,0,0,97.18,391L90.9,406.34a26.81,26.81,0,0,1-6.77-8.24,52.62,52.62,0,0,1-2.57-5.22,56.21,56.21,0,0,1-2-5.47A55.67,55.67,0,0,0,81.27,393a51.25,51.25,0,0,0,2.31,5.4,27.27,27.27,0,0,0,6.85,9.12l-7,17.15,1.16.46,2.88-7.4a16.78,16.78,0,0,0,6.75.28,25,25,0,0,0,6.43-1.89,33.06,33.06,0,0,0,5.79-3.3c.9-.65,1.76-1.35,2.64-2l2.47-2.21L109,410.68c-.91.62-1.79,1.28-2.71,1.88a33.91,33.91,0,0,1-5.85,3,24.36,24.36,0,0,1-6.31,1.54,16.08,16.08,0,0,1-6.18-.51L96,395.7l-.59,1a55,55,0,0,0,6.19-.93,46.4,46.4,0,0,0,5.42-1.41,35.73,35.73,0,0,0,5.13-2.21A24.08,24.08,0,0,0,116.7,389,23.89,23.89,0,0,1,112,391.9,34.54,34.54,0,0,1,106.86,393.79Z" fill="#231f20" opacity="0.2"/><rect x="54.97" y="422.79" width="50.37" height="9.04" rx="3.61" fill="#433de4"/><rect x="54.97" y="422.79" width="50.37" height="9.04" rx="3.61" fill="#fff" opacity="0.3"/><path d="M404.08,325.54c-5.76,4.41-16.59,8.1-16.59,8.1-9.94,1.33-10.6,5.31-10.6,5.31-7,11.52-16.69,14.7-21.54,15.58a12,12,0,0,0-5.76,2.75L306,395.3c-11.61,11.93-23.87,4-23.87,4L244,377.07l3-10.81,5.3-2.45,34.87,16.38a8,8,0,0,0,7.61-.4c11.73-7.11,48.22-29,61.49-34.38a15.42,15.42,0,0,0,6.32-4.7c3.5-4.41,10.2-11.37,17.67-11.37,0,0,14.68-1.41,18.76-10.76a25.82,25.82,0,0,1,4.73,1.95A3,3,0,0,1,404.08,325.54Z" fill="#f7a48b"/><path d="M145.57,368.11h356.8a7.21,7.21,0,0,1,7.21,7.21V379a7.21,7.21,0,0,1-7.21,7.21H145.57a0,0,0,0,1,0,0V368.11A0,0,0,0,1,145.57,368.11Z" fill="#e6e7e8"/></svg>