<?xml version="1.0" encoding="UTF-8"?>
<svg xmlns="http://www.w3.org/2000/svg" id="a" width="865.76" height="682.89" viewBox="0 0 865.76 682.89">
  <polygon points="199.91 374.46 97.31 629.23 289.67 597.6 430.75 629.23 575.23 597.6 768.45 634.46 665.01 374.46 549.59 345.39 432.89 367.62 313.62 345.39 199.91 374.46" fill="#fff" stroke="#002346" stroke-miterlimit="10"></polygon>
  <polygon points="205.9 381.3 115.27 616.41 288.82 588.19 432.89 621.53 575.23 587.35 752.2 621.53 659.02 381.3 551.3 354.79 432.89 377.03 311.91 354.79 205.9 381.3" fill="#fff" stroke="#002346" stroke-miterlimit="10"></polygon>
  <polygon points="125.34 590.29 263.28 558.33 258.2 528.62 269.66 521.4 251.82 452 196.66 405.24 125.34 590.29" fill="#d1d3d4" stroke="#002346" stroke-miterlimit="10"></polygon>
  <polygon points="115.27 616.41 121.99 598.97 353.29 545.23 365.85 579.8 361.78 586.79 318.35 595.03 288.82 588.19 115.27 616.41" fill="#e6e7e8" stroke="#002346" stroke-miterlimit="10"></polygon>
  <polygon points="365.85 541.88 375.03 576.08 401.68 587.66 439.57 570.83 519.08 547.67 494.27 510.29 365.85 541.88" fill="#e6e7e8" stroke="#002346" stroke-miterlimit="10"></polygon>
  <polygon points="273.47 554.55 316.45 545.23 307.87 517.3 276.56 524.86 268.23 530.75 273.47 554.55" fill="#e6e7e8" stroke="#002346" stroke-miterlimit="10"></polygon>
  <polygon points="264.69 462 280.29 513.21 304.68 507.84 300.29 488.17 353.94 476.15 264.69 462" fill="#d1d3d4" stroke="#002346" stroke-miterlimit="10"></polygon>
  <polygon points="200.73 394.73 268.23 448.91 357.83 465.91 453.42 442.15 409.79 372.78 311.91 354.79 205.9 381.3 200.73 394.73" fill="#e6e7e8" stroke="#002346" stroke-miterlimit="10"></polygon>
  <polygon points="422.85 375.18 562.98 590.29 575.23 587.35 439.6 375.77 432.89 377.03 422.85 375.18" fill="#e6e7e8" stroke="#002346" stroke-miterlimit="10"></polygon>
  <polygon points="309.31 493.59 327.06 545.23 484.7 504.95 455.53 455.29 309.31 493.59" fill="#e6e7e8" stroke="#002346" stroke-miterlimit="10"></polygon>
  <polyline points="397.01 613.23 398.54 610.95 408.9 595.56 433.74 587.66 450.83 574.79 524.91 554.55 547.92 593.9 432.89 621.53" fill="#e6e7e8" stroke="#002346" stroke-miterlimit="10"></polyline>
  <polygon points="528.24 359.12 565.36 400.42 659.02 381.3 551.3 354.79 528.24 359.12" fill="#e6e7e8" stroke="#002346" stroke-miterlimit="10"></polygon>
  <polygon points="678.73 432.11 609.95 451.22 575.23 405.24 661.36 387.36 678.73 432.11" fill="#e6e7e8" stroke="#002346" stroke-miterlimit="10"></polygon>
  <polygon points="446.95 374.37 519.08 477.97 602.31 454.08 519.08 360.84 446.95 374.37" fill="#e6e7e8" stroke="#002346" stroke-miterlimit="10"></polygon>
  <polygon points="648.58 601.51 731.79 568.92 752.2 621.53 648.58 601.51" fill="#e6e7e8" stroke="#002346" stroke-miterlimit="10"></polygon>
  <polygon points="561.54 471.78 606.76 459.99 654.52 517.3 608.04 532.73 561.54 471.78" fill="#d1d3d4" stroke="#002346" stroke-miterlimit="10"></polygon>
  <polygon points="616.95 455.29 667.26 512.98 705.16 500.25 680.24 436.01 616.95 455.29" fill="#e6e7e8" stroke="#002346" stroke-miterlimit="10"></polygon>
  <polygon points="654.52 588.05 616.95 535.92 707.77 506.98 726.22 554.55 714.38 566.46 654.52 588.05" fill="#d1d3d4" stroke="#002346" stroke-miterlimit="10"></polygon>
  <polygon points="523.49 485.59 592.52 590.29 635.04 598.9 643.06 595.23 555.58 475.92 523.49 485.59" fill="#e6e7e8" stroke="#002346" stroke-miterlimit="10"></polygon>
  <polygon points="240.56 563.6 223.37 482.73 162.72 493.33 125.34 590.29 240.56 563.6" fill="#e6e7e8" stroke="#002346" stroke-miterlimit="10"></polygon>
  <polygon points="296.32 358.69 296.32 395.72 309.31 397.36 345.57 439.59 376.74 436.01 391.58 457.52 357.83 465.91 268.23 448.91 200.73 394.73 205.9 381.3 296.32 358.69" fill="#d1d3d4" stroke="#002346" stroke-miterlimit="10"></polygon>
  <polygon points="339.1 599.83 361.52 597.1 369 586.17 397.01 594.97 389.68 611.54 339.1 599.83" fill="#d1d3d4" stroke="#002346" stroke-miterlimit="10"></polygon>
  <path d="M236.81,312.59c-16.94,.41-30.35,14.49-29.93,31.43,.15,6.16,2.15,12.14,5.75,17.15h0l.29,.42h0l21.74,29.55c1.52,2.08,4.44,2.53,6.51,1.01,0,0,0,0,0,0,.43-.31,.8-.7,1.1-1.14l19.64-29.21c3.71-5.66,6.26-11.59,6.26-18.57-.04-16.94-13.8-30.65-30.74-30.62h-.63Zm.73,52.99c-12.74,0-23.07-10.33-23.07-23.07s10.33-23.07,23.07-23.07c12.74,0,23.07,10.33,23.07,23.07h0c0,12.75-10.33,23.08-23.07,23.08h0Z" fill="#fff" stroke="#002346" stroke-miterlimit="10"></path>
  <path d="M234,312.59c-16.35,.44-29.51,13.59-29.95,29.94-.19,6.69,1.83,13.26,5.75,18.68h0l.3,.41h0l21.72,29.55c1.51,2.09,4.42,2.57,6.52,1.07,.46-.33,.85-.74,1.16-1.21l19.64-29.21c3.72-5.66,6.26-11.59,6.26-18.57-.02-16.94-13.77-30.67-30.71-30.65h-.69Zm.72,48.83c-9.65,0-17.47-7.83-17.46-17.48,0-9.65,7.83-17.47,17.48-17.46,9.64,0,17.46,7.83,17.46,17.47s-7.82,17.47-17.47,17.47h0Z" fill="#433de4" stroke="#002346" stroke-miterlimit="10"></path>
  <path d="M672.78,504.31c-12.91,.3-23.14,11.01-22.85,23.92,.11,4.7,1.63,9.26,4.37,13.08h0l.23,.31h0l16.57,22.51c1.16,1.57,3.38,1.9,4.95,.74,.02-.01,.03-.02,.05-.04,.3-.23,.56-.5,.77-.81l15-22.25c2.98-4.13,4.65-9.06,4.78-14.15-.03-12.92-10.53-23.38-23.45-23.35h0l-.42,.04Zm.56,40.39c-9.71,0-17.58-7.87-17.58-17.58s7.87-17.58,17.58-17.58c9.69,0,17.55,7.83,17.58,17.52,.03,9.71-7.83,17.61-17.54,17.64-.01,0-.03,0-.04,0Z" fill="#fff" stroke="#002346" stroke-miterlimit="10"></path>
  <path d="M670.4,504.31c-12.91,.32-23.12,11.06-22.8,23.97,.12,4.68,1.64,9.22,4.37,13.03h0l.21,.31h0l16.55,22.51c1.15,1.59,3.37,1.94,4.96,.79,.01-.01,.03-.02,.04-.03,.33-.24,.61-.53,.84-.87l15-22.25c2.97-4.13,4.63-9.06,4.77-14.15-.02-12.92-10.51-23.37-23.43-23.35h0l-.51,.04Zm.54,37.22c-7.36,0-13.32-5.96-13.32-13.32s5.96-13.32,13.32-13.32,13.32,5.96,13.32,13.32h0c.01,7.34-5.92,13.3-13.26,13.32h-.06Z" fill="#433de4" stroke="#002346" stroke-miterlimit="10"></path>
  <path d="M434.39,503.38l-128.86-166.72s-53.94-72.39-29.38-155.5c13.35-45.18,47-81.45,90.47-99.49,38.43-15.93,95.71-25.85,157,11.87,0,0,48.1,29.5,61.87,94.29,4.05,19.46,4.47,39.5,1.24,59.11-3,18.62-9.37,47.28-21.79,64.08l-130.55,192.36Z" fill="#433de4" stroke="#002346" stroke-miterlimit="10"></path>
  <circle cx="433.49" cy="227.5" r="103.42" fill="#433de4" stroke="#002346" stroke-miterlimit="10"></circle>
  <circle cx="416.58" cy="227.5" r="89.66" fill="#fff" stroke="#002346" stroke-miterlimit="10"></circle>
  <path d="M365.21,236.8s-24.13,22.09-31.31,25.39c0,0-9.1-22.39-6.86-39.35,0,0,9.86-5,12.92-9.63l25.25,23.59Z" fill="#f2b3c1" stroke="#002346" stroke-miterlimit="10"></path>
  <path d="M498.46,258.34l18,33.32c4.87,9.17,13.94,15.35,24.26,16.54,1.99,.21,4,.24,6,.08l81.41-12.53c5.16-1.09,9.17-5.15,10.21-10.32l12.83,8.2c1.69,1.08,3.93,.58,5.01-1.11,.05-.08,.1-.17,.15-.25h0c.84-1.59,.38-3.56-1.08-4.62l-21.35-15.48c-1.6-1.16-3.56-1.71-5.53-1.56l-80.74,6.33c-2.73,.21-5.32-1.28-6.5-3.75l-15.88-33.2-26.79,18.35Z" fill="#f2b3c1" stroke="#002346" stroke-miterlimit="10"></path>
  <path d="M499.29,78.42s6.12,6.12,0,20.46c0,0-4.78,8.23-6.31,14.54l1.11-17.36c.23-3.14-.32-6.28-1.59-9.16-.77-1.71-1.76-3.25-3-3.7,.04,.01-23.11,6.89-56.96,2.33l-1.54,30.2s-3.83,1.33-5-3.06c0,0-4-7.08-10.14-5,0,0-20.84-43.61,11.86-55.09,0,0,5.17-1.91,19.32-3.25,0,0,54.15-8.84,52.25,29.09Z" fill="#002346" stroke="#002346" stroke-miterlimit="10"></path>
  <path d="M333.07,211.43l36.22,33.41,11.47-12.5-14.37,73.85s39.29,38.75,101.88,18.73l20.12-74,4.84,11,35.71-24.49-20.15-38.76s-10.45-23.21-40.8-33.41c0,0-53.31-12.76-72.94-7.65-12.71,3.3-24.11,10.42-32.65,20.4l-29.33,33.42Z" fill="#2f2e41" stroke="#002346" stroke-miterlimit="10"></path>
  <path d="M417.64,156.87s-8.82,31,24.46,36.71c0,0,28,3.47,27-27.92,.03,0-35.2-8.56-51.46-8.79Z" fill="#fff" stroke="#002346" stroke-miterlimit="10"></path>
  <path d="M427.75,127.59s-9.38,6.49-15.23-2.59c-2.14-3.28-2.86-7.28-2-11.1,.62-2.66,2.08-5.39,5.42-6.21,0,0,5.74-2.29,10.14,5,0,0,1.91,5,5,3.06l1.46-30.22s33.66,5,57-2.29c0,0,5,3.27,4.59,10.91l-1.13,19.28-.38,23.53s-4.56,25.42-27.36,24.29l-.95,10.28c-.86,9.46-9.22,16.42-18.67,15.57-.65-.06-1.3-.16-1.94-.29l-5.2-1.07c-8.45-1.75-14.29-9.49-13.67-18.09l2.92-40.06Z" fill="#f2b3c1" stroke="#002346" stroke-miterlimit="10"></path>
  <path d="M465.26,161.25s-11.16,.14-17.52-4.38" fill="none" stroke="#002346" stroke-linecap="round" stroke-linejoin="round"></path>
</svg>
