<svg version="1.1" id="Layer_1" xmlns="http://www.w3.org/2000/svg" xmlns:xlink="http://www.w3.org/1999/xlink" x="0px" y="0px" width="100%px" viewBox="0 0 1024 672" enable-background="new 0 0 1024 672" xml:space="preserve" height="100px" transform="rotate(0) scale(1, 1)">
<path fill="#317bc4" opacity="1.000000" stroke="none" d="&#10;M649.704651,278.578552 &#10;&#9;C630.177734,319.902313 606.183960,358.050385 578.518555,393.875000 &#10;&#9;C564.787415,411.655823 551.003540,429.433807 535.317871,445.607849 &#10;&#9;C529.855896,451.239960 523.883484,456.294037 518.075439,461.541382 &#10;&#9;C515.873535,463.530670 514.398682,463.534241 512.140686,461.719452 &#10;&#9;C502.514862,453.983398 493.135162,445.916809 485.049469,436.617462 &#10;&#9;C470.304199,419.658844 454.493103,403.592682 441.269409,385.340637 &#10;&#9;C413.355560,346.812286 387.647461,306.983917 370.188019,262.425842 &#10;&#9;C363.629456,245.687790 357.487915,228.680344 355.405670,210.744598 &#10;&#9;C349.799683,162.456985 360.175598,118.087822 391.686462,80.375916 &#10;&#9;C413.707611,54.021263 442.200470,36.772652 475.823914,28.747475 &#10;&#9;C511.997742,20.113573 547.318115,23.024784 580.997192,38.934254 &#10;&#9;C617.247620,56.058376 642.657959,83.912300 659.282959,120.296379 &#10;&#9;C669.871338,143.469193 673.412292,167.753296 672.039185,192.788727 &#10;&#9;C670.598511,219.056564 664.649353,244.423187 653.921326,268.562195 &#10;&#9;C652.501709,271.756378 651.218811,275.011353 649.704651,278.578552 &#10;M594.601135,268.099792 &#10;&#9;C616.347839,248.097961 629.980713,224.079803 632.957092,194.145706 &#10;&#9;C634.852234,175.085999 633.809326,156.703156 626.721741,138.751358 &#10;&#9;C614.468933,107.716820 593.497742,84.859451 563.267029,70.709549 &#10;&#9;C540.187012,59.906639 515.864746,57.777905 491.069580,62.264629 &#10;&#9;C450.808563,69.549911 422.417053,92.749611 404.247284,128.954208 &#10;&#9;C402.168213,133.096985 400.952057,137.666061 399.223938,141.992813 &#10;&#9;C389.836731,165.496002 389.571899,189.642410 396.632111,213.416809 &#10;&#9;C407.978973,251.625793 434.562164,275.925812 471.113068,289.953217 &#10;&#9;C489.092194,296.853210 507.869293,299.779968 526.996216,297.376862 &#10;&#9;C551.994812,294.236023 574.329773,284.269196 594.601135,268.099792 &#10;M503.873688,381.666412 &#10;&#9;C503.790894,394.832703 504.485901,392.473724 515.131470,392.664764 &#10;&#9;C515.963745,392.679718 516.805359,392.584747 517.627686,392.675751 &#10;&#9;C522.066345,393.167084 524.068481,391.513397 523.758057,386.764679 &#10;&#9;C523.432983,381.792175 524.048767,376.753937 523.658203,371.791229 &#10;&#9;C523.278442,366.964935 525.325806,365.591614 529.709473,365.923035 &#10;&#9;C534.514648,366.286407 539.344910,366.307373 544.156128,366.607727 &#10;&#9;C547.846375,366.838074 549.874878,365.544861 549.758789,361.549988 &#10;&#9;C549.647644,357.723633 549.640137,353.887177 549.783752,350.062531 &#10;&#9;C549.934265,346.052429 547.943604,344.834290 544.234253,344.999725 &#10;&#9;C538.747681,345.244446 533.247742,345.174377 527.756592,345.340454 &#10;&#9;C524.774475,345.430603 523.624329,344.153625 523.636536,341.167847 &#10;&#9;C523.654968,336.683258 523.540833,332.178009 523.117798,327.716187 &#10;&#9;C522.400757,320.153259 522.280945,320.164581 514.857727,320.213013 &#10;&#9;C503.102539,320.289734 502.844360,320.563538 503.519623,332.238281 &#10;&#9;C504.259888,345.036835 504.259827,345.019165 491.624146,345.075104 &#10;&#9;C475.509705,345.146423 477.457947,342.363373 477.348938,360.435425 &#10;&#9;C477.324799,364.436157 479.056946,365.984772 483.111145,366.014679 &#10;&#9;C489.706940,366.063324 496.298920,366.628693 503.056610,366.984589 &#10;&#9;C503.337982,371.802124 503.598785,376.267639 503.873688,381.666412 &#10;z"/>
<path fill="#317bc4" opacity="1.000000" stroke="none" d="&#10;M860.984314,527.696899 &#10;&#9;C877.267944,528.965759 893.089844,530.225647 908.938232,531.487671 &#10;&#9;C908.744812,534.364441 907.155884,534.168640 905.959656,534.237427 &#10;&#9;C887.686523,535.287415 869.422424,536.678101 851.133240,537.233154 &#10;&#9;C779.349854,539.411682 707.543091,538.221924 635.747803,538.080383 &#10;&#9;C616.663513,538.042725 597.583557,535.927307 578.500854,534.779541 &#10;&#9;C575.345581,534.589722 572.181396,534.531189 569.030518,534.291992 &#10;&#9;C567.505615,534.176208 565.623535,534.924072 564.622498,532.864685 &#10;&#9;C565.565430,530.655212 567.634094,531.060974 569.315430,530.945129 &#10;&#9;C590.374146,529.493713 611.428650,527.943481 632.506165,526.833496 &#10;&#9;C637.246521,526.583923 638.817078,525.240967 638.775879,520.455505 &#10;&#9;C638.572083,496.798767 638.799988,473.138092 638.562561,449.481964 &#10;&#9;C638.513489,444.591125 639.982117,443.231934 644.803711,443.449951 &#10;&#9;C660.283630,444.149963 675.773560,443.425018 691.251221,442.925507 &#10;&#9;C695.531250,442.787384 697.191040,444.135956 697.142029,448.581726 &#10;&#9;C696.934631,467.383362 697.037537,486.188171 696.935242,504.991333 &#10;&#9;C696.905396,510.482330 696.535522,515.970703 696.399414,521.462280 &#10;&#9;C696.359192,523.083862 696.139465,525.191406 698.476379,525.320190 &#10;&#9;C701.205444,525.470520 700.992554,523.200623 700.991333,521.391113 &#10;&#9;C700.971619,492.069550 700.943542,462.747925 700.864868,433.426483 &#10;&#9;C700.859741,431.520935 701.377197,429.150208 698.995605,428.165527 &#10;&#9;C693.469543,425.880768 695.967712,423.088684 698.732117,420.898468 &#10;&#9;C704.078308,416.662750 709.634033,412.675903 715.254089,408.805420 &#10;&#9;C722.788391,403.616547 729.655396,397.430603 737.989868,393.432007 &#10;&#9;C739.839539,392.544617 740.066101,391.290680 739.641296,389.362823 &#10;&#9;C737.712952,380.610443 739.310425,371.451904 736.217773,362.726013 &#10;&#9;C735.007324,359.310852 736.925049,355.681152 741.070618,354.702148 &#10;&#9;C745.352905,353.690918 747.481689,356.203186 748.739441,359.991730 &#10;&#9;C749.647156,362.725922 749.294189,365.343994 748.203674,367.779022 &#10;&#9;C745.001587,374.929504 747.251465,382.645081 745.717285,389.978882 &#10;&#9;C745.225830,392.328247 748.062439,393.071686 749.640930,393.985992 &#10;&#9;C762.827332,401.624176 774.472412,411.311829 786.075378,421.061493 &#10;&#9;C787.570801,422.318054 789.415588,423.325775 790.162537,426.106354 &#10;&#9;C783.858704,428.954468 785.111816,434.859406 785.398315,440.213165 &#10;&#9;C786.512451,461.029724 784.786377,481.836151 785.372375,502.645172 &#10;&#9;C785.555237,509.135010 785.758606,515.625793 786.092468,522.108887 &#10;&#9;C786.176025,523.731689 785.479431,526.445251 788.299988,526.202148 &#10;&#9;C790.545593,526.008667 789.847046,523.612732 789.848083,522.063416 &#10;&#9;C789.863953,497.739441 789.959412,473.414307 789.721252,449.092529 &#10;&#9;C789.674377,444.311523 791.033691,442.624603 795.885681,442.698181 &#10;&#9;C811.043213,442.928101 826.207153,442.869629 841.366821,442.728333 &#10;&#9;C845.248230,442.692169 846.442749,443.903778 846.407654,447.935822 &#10;&#9;C846.194702,472.425262 846.365601,496.917847 846.206909,521.408081 &#10;&#9;C846.180542,525.477051 847.440613,527.161865 851.577209,527.021912 &#10;&#9;C854.548096,526.921387 857.540039,527.443542 860.984314,527.696899 &#10;M758.966980,515.466370 &#10;&#9;C758.911743,509.152679 758.820557,502.839020 758.819519,496.525330 &#10;&#9;C758.819153,494.085632 758.423706,492.157928 755.335510,492.386627 &#10;&#9;C746.878479,493.012970 738.419922,492.783691 729.963806,492.380188 &#10;&#9;C727.150818,492.245941 726.224487,493.549561 726.258240,496.283966 &#10;&#9;C726.364868,504.922668 726.404846,513.566162 726.222229,522.202576 &#10;&#9;C726.146240,525.798096 727.682068,526.810791 730.995239,526.721375 &#10;&#9;C736.972595,526.560059 742.958008,526.723999 748.938843,526.653076 &#10;&#9;C759.594116,526.526794 759.149841,528.279846 758.966980,515.466370 &#10;M744.333984,452.579803 &#10;&#9;C749.806885,451.662628 754.282593,448.968231 758.065979,444.976532 &#10;&#9;C765.191467,437.458679 765.654907,426.523895 759.143799,418.607513 &#10;&#9;C751.600647,409.436493 742.248291,407.140747 733.735168,412.370422 &#10;&#9;C723.612610,418.588715 719.785889,429.577637 724.232971,439.353302 &#10;&#9;C728.024719,447.688385 735.173340,451.008484 744.333984,452.579803 &#10;M833.243347,466.351501 &#10;&#9;C833.100159,465.883301 833.099915,465.153534 832.792603,464.985535 &#10;&#9;C826.697144,461.653748 821.357605,464.671844 821.346130,471.409302 &#10;&#9;C821.344421,472.405762 821.448669,473.415619 821.323608,474.396301 &#10;&#9;C820.800171,478.502747 822.461060,479.956757 826.647888,479.798065 &#10;&#9;C833.767334,479.528198 833.787781,479.751923 833.576782,472.576996 &#10;&#9;C833.523132,470.752930 833.367676,468.931885 833.243347,466.351501 &#10;M721.590820,478.870972 &#10;&#9;C726.559570,479.579987 728.791687,477.686707 727.910828,472.491058 &#10;&#9;C727.609131,470.711426 727.743530,468.841644 727.816162,467.018555 &#10;&#9;C727.920654,464.397339 726.799622,463.219879 724.146973,462.748901 &#10;&#9;C717.208008,461.516876 716.224487,462.197815 716.261902,469.092896 &#10;&#9;C716.271851,470.920013 716.417969,472.755402 716.291443,474.572357 &#10;&#9;C716.064697,477.828766 717.522095,479.192627 721.590820,478.870972 &#10;M652.265198,470.603363 &#10;&#9;C652.283508,472.435394 652.286011,474.267761 652.325745,476.099335 &#10;&#9;C652.351318,477.279907 652.377625,478.676117 653.650818,479.097595 &#10;&#9;C656.714905,480.111938 659.974792,480.225067 662.934448,479.065613 &#10;&#9;C665.495544,478.062317 664.513794,475.344482 664.591431,473.282166 &#10;&#9;C664.641113,471.962280 664.297058,470.631500 664.292114,469.304962 &#10;&#9;C664.270813,463.668030 660.281189,464.401154 656.577209,464.229431 &#10;&#9;C652.324951,464.032288 652.043213,466.575562 652.265198,470.603363 &#10;M661.886841,507.657654 &#10;&#9;C664.303406,504.995941 665.744751,496.361450 663.853088,493.887238 &#10;&#9;C661.535950,490.856445 658.069946,492.345398 655.085266,492.393921 &#10;&#9;C652.704224,492.432556 652.503540,494.442780 652.350464,496.373688 &#10;&#9;C651.447083,507.768799 651.466125,507.817200 661.886841,507.657654 &#10;M679.794250,464.169037 &#10;&#9;C676.640198,464.040222 675.202637,465.537689 675.347595,468.701996 &#10;&#9;C675.439026,470.696564 675.316467,472.700012 675.359375,474.697998 &#10;&#9;C675.397705,476.484772 674.921326,478.858704 677.197266,479.363129 &#10;&#9;C680.223755,480.033875 684.200623,481.124146 686.245300,478.737823 &#10;&#9;C689.314880,475.155273 687.123962,470.365631 686.558533,466.221436 &#10;&#9;C686.130432,463.084534 682.801086,464.462524 679.794250,464.169037 &#10;M832.738098,495.924377 &#10;&#9;C832.423706,490.194061 828.033936,492.698700 825.218079,492.344635 &#10;&#9;C822.173706,491.961761 821.177917,493.890076 821.296387,496.689087 &#10;&#9;C821.387512,498.842987 821.456360,501.014435 821.288879,503.158844 &#10;&#9;C821.025574,506.530853 822.351196,507.888672 825.813782,508.001801 &#10;&#9;C832.453552,508.218781 832.944580,507.921112 832.879395,501.298950 &#10;&#9;C832.864685,499.805450 832.813110,498.312317 832.738098,495.924377 &#10;M806.142395,479.673767 &#10;&#9;C808.925476,479.701813 809.911560,478.139557 809.857056,475.567352 &#10;&#9;C809.808044,473.254913 809.736084,470.934570 809.866882,468.628662 &#10;&#9;C810.064941,465.137421 808.425293,464.078583 805.091431,464.102814 &#10;&#9;C798.629700,464.149719 798.418701,464.207092 798.419739,470.691406 &#10;&#9;C798.420105,473.462219 798.419739,476.233002 798.419739,478.708862 &#10;&#9;C801.000122,480.213959 803.196472,479.498169 806.142395,479.673767 &#10;M675.566528,500.048767 &#10;&#9;C676.540222,502.517303 674.603821,506.096710 678.077881,507.555176 &#10;&#9;C683.370911,509.777222 687.026672,507.207245 687.071777,501.420288 &#10;&#9;C687.087341,499.424011 687.016785,497.424988 686.918213,495.430573 &#10;&#9;C686.848083,494.012543 686.319336,492.956696 684.783752,492.435791 &#10;&#9;C678.687073,490.367828 675.311462,492.779022 675.566528,500.048767 &#10;M759.584595,470.057281 &#10;&#9;C759.668701,471.213501 759.977356,472.406006 759.797241,473.519501 &#10;&#9;C759.099182,477.835846 761.125610,478.653198 765.069519,478.840149 &#10;&#9;C769.863708,479.067383 771.341553,477.330719 770.778748,472.859619 &#10;&#9;C770.511475,470.735779 770.702820,468.556274 770.647156,466.402985 &#10;&#9;C770.617004,465.237915 770.511536,464.139771 769.276245,463.442352 &#10;&#9;C764.948303,460.998749 759.574036,464.167114 759.584595,470.057281 &#10;M799.625610,493.321991 &#10;&#9;C798.276062,496.172791 799.463867,499.269745 798.826660,502.142181 &#10;&#9;C797.771118,506.899994 799.623413,508.206665 804.226746,508.140167 &#10;&#9;C808.502625,508.078400 810.457947,506.781982 809.892822,502.361145 &#10;&#9;C809.683777,500.726532 809.679993,499.036743 809.820068,497.392365 &#10;&#9;C810.146484,493.562653 808.609741,491.753754 804.675293,492.255554 &#10;&#9;C803.207764,492.442719 801.735718,492.594574 799.625610,493.321991 &#10;M741.065369,479.597717 &#10;&#9;C744.013184,479.346100 748.256348,481.765289 748.853638,476.418732 &#10;&#9;C749.237183,472.985535 748.908508,469.458771 748.737915,465.981812 &#10;&#9;C748.580994,462.782898 746.072388,462.999207 743.952148,463.179901 &#10;&#9;C741.878784,463.356628 738.498108,462.115570 738.529480,465.692169 &#10;&#9;C738.569458,470.231659 738.131897,474.955597 741.065369,479.597717 &#10;z"/>
<path fill="#317bc4" opacity="1.000000" stroke="none" d="&#10;M626.175781,405.289917 &#10;&#9;C610.124573,411.702332 594.469360,418.088806 576.629761,422.922394 &#10;&#9;C579.898865,418.554993 582.304382,415.320587 584.731689,412.102600 &#10;&#9;C590.037720,405.068146 596.151978,398.616699 600.229065,390.696930 &#10;&#9;C601.243408,388.726440 603.114929,388.065186 604.954041,387.270752 &#10;&#9;C630.633789,376.178467 656.485840,365.427734 680.792114,351.453125 &#10;&#9;C704.514893,337.813995 727.516235,323.117340 746.984070,303.584656 &#10;&#9;C755.596191,294.943848 763.604858,285.675110 769.550110,275.044617 &#10;&#9;C778.256287,259.477539 777.478027,243.769348 767.702454,228.762512 &#10;&#9;C757.083557,212.460922 741.674011,201.804520 724.659851,193.274231 &#10;&#9;C714.408691,188.134720 704.228821,182.709457 692.978394,179.906250 &#10;&#9;C690.327026,179.245621 689.085388,177.730362 689.008728,174.984360 &#10;&#9;C688.925171,171.992981 688.710449,168.993729 688.336792,166.025116 &#10;&#9;C687.936707,162.845657 689.799255,162.464905 691.966675,163.209625 &#10;&#9;C723.260193,173.962006 753.314758,186.889297 775.351440,213.059952 &#10;&#9;C797.940125,239.886215 797.843018,270.465668 775.756897,300.377106 &#10;&#9;C756.342407,326.670471 731.567505,346.791992 704.174988,364.069122 &#10;&#9;C679.332275,379.738037 653.212158,392.969910 626.175781,405.289917 &#10;z"/>
<path fill="#317bc4" opacity="1.000000" stroke="none" d="&#10;M209.122681,544.078186 &#10;&#9;C215.533600,544.729858 221.504349,544.788452 227.505890,544.211609 &#10;&#9;C230.298447,543.943237 233.149216,544.153320 235.964020,544.314026 &#10;&#9;C236.927917,544.369019 237.902740,544.908997 238.078201,546.106079 &#10;&#9;C238.250305,547.280396 237.582397,547.959900 236.611023,548.431030 &#10;&#9;C226.571945,553.300964 225.855820,561.423889 226.929077,571.527771 &#10;&#9;C228.840729,589.524536 229.405151,607.671387 230.261261,625.768250 &#10;&#9;C230.466766,630.112610 231.054947,634.383179 231.687347,638.635010 &#10;&#9;C232.650436,645.110107 236.212646,649.956116 242.150650,652.984192 &#10;&#9;C243.848465,653.850037 245.845016,654.449158 247.520721,657.497375 &#10;&#9;C231.909790,659.603821 217.008881,656.545105 202.266495,658.324219 &#10;&#9;C201.681503,655.070557 204.030807,654.810974 205.369598,653.879761 &#10;&#9;C208.904633,651.421143 210.967834,648.359375 210.691315,643.845825 &#10;&#9;C209.878357,630.576843 209.224426,617.298096 208.412048,604.029114 &#10;&#9;C207.905838,595.760986 208.034790,587.448059 206.642944,578.683960 &#10;&#9;C198.034073,604.188599 185.857346,627.684631 176.082581,652.190430 &#10;&#9;C174.980576,654.953186 174.620941,659.050842 170.534103,659.016296 &#10;&#9;C166.540863,658.982666 165.268036,655.136780 164.019974,652.208862 &#10;&#9;C153.523499,627.584656 140.354828,604.189514 130.177353,578.186340 &#10;&#9;C130.948608,593.199402 129.576935,607.085999 129.263840,621.005371 &#10;&#9;C129.107742,627.945679 128.815414,634.892090 128.276932,641.811829 &#10;&#9;C127.807091,647.849548 130.013077,652.151123 135.432571,654.828613 &#10;&#9;C136.334076,655.273987 137.198303,655.796265 137.485168,657.619202 &#10;&#9;C125.913200,657.619202 114.440018,657.619202 103.023735,657.619202 &#10;&#9;C102.823135,656.513062 103.222260,655.986511 103.843781,655.686401 &#10;&#9;C112.229118,651.636597 115.050224,644.252441 115.567513,635.678894 &#10;&#9;C117.009544,611.778564 118.112770,587.855530 119.804131,563.973633 &#10;&#9;C120.325241,556.615540 116.849419,552.891968 110.912064,550.126526 &#10;&#9;C108.940704,549.208313 106.205292,549.097229 105.540382,545.869934 &#10;&#9;C108.590538,544.042847 112.024261,543.950134 115.401848,543.892456 &#10;&#9;C121.897263,543.781433 128.405289,544.043945 134.888748,543.739563 &#10;&#9;C138.573654,543.566589 140.172470,544.973083 141.275909,548.380920 &#10;&#9;C149.497025,573.770752 160.158081,598.168884 171.716232,622.188904 &#10;&#9;C172.116364,623.020508 172.216690,624.199585 173.933624,624.597290 &#10;&#9;C177.195892,616.873535 180.405396,609.042236 183.797485,601.290894 &#10;&#9;C191.470016,583.758179 199.650055,566.421631 204.419220,547.779236 &#10;&#9;C205.036911,545.364685 205.906235,543.742554 209.122681,544.078186 &#10;z"/>
<path fill="#317bc4" opacity="1.000000" stroke="none" d="&#10;M313.251343,298.000336 &#10;&#9;C313.283081,315.813354 313.187134,333.128235 313.437286,350.438141 &#10;&#9;C313.502716,354.964691 312.170929,356.557983 307.529510,356.419495 &#10;&#9;C296.717560,356.096863 285.890350,356.181946 275.070953,356.280212 &#10;&#9;C271.988129,356.308228 270.364136,355.492096 269.333435,352.262482 &#10;&#9;C266.175568,342.367706 257.978394,336.246246 248.828110,336.356995 &#10;&#9;C240.446747,336.458405 233.132629,342.917114 230.117920,352.986328 &#10;&#9;C228.387802,358.764984 223.781921,355.590698 220.438644,356.067505 &#10;&#9;C217.289124,356.516663 216.693207,354.288635 216.699966,351.588745 &#10;&#9;C216.767120,324.787201 216.798187,297.985535 216.766281,271.183960 &#10;&#9;C216.762268,267.815460 217.947449,266.463745 221.491241,266.593719 &#10;&#9;C250.284195,267.650024 279.083099,266.697845 307.879272,266.595062 &#10;&#9;C312.432526,266.578827 313.587891,268.376495 313.458771,272.531982 &#10;&#9;C313.200348,280.848877 313.300659,289.176910 313.251343,298.000336 &#10;M281.268677,315.089905 &#10;&#9;C284.126587,314.821259 287.746643,317.205902 289.694824,314.186310 &#10;&#9;C291.809052,310.909363 291.098969,306.658417 290.253510,303.036835 &#10;&#9;C289.572388,300.119415 286.282379,301.319397 284.143433,301.265137 &#10;&#9;C274.348022,301.016754 272.180267,300.700043 274.507294,290.678162 &#10;&#9;C274.963074,288.715210 275.160980,286.314850 272.194824,285.413116 &#10;&#9;C263.724792,282.838135 260.241150,285.291687 260.270508,293.956879 &#10;&#9;C260.273865,294.954956 260.211365,295.958405 260.292572,296.950104 &#10;&#9;C260.555939,300.166473 259.101837,301.461609 255.903900,301.344482 &#10;&#9;C251.965759,301.200226 248.018295,301.310059 243.721359,301.310059 &#10;&#9;C243.866531,303.887115 244.054810,306.323761 244.131592,308.763885 &#10;&#9;C244.348709,315.664062 244.330688,315.664673 250.983231,315.666534 &#10;&#9;C259.871490,315.669037 259.887115,315.668274 260.328156,325.044647 &#10;&#9;C260.416382,326.919983 260.395996,328.658112 262.690582,329.428162 &#10;&#9;C269.283325,331.640594 274.833435,327.979218 274.570862,321.100525 &#10;&#9;C274.401520,316.663879 275.646423,314.391418 281.268677,315.089905 &#10;z"/>
<path fill="#317bc4" opacity="1.000000" stroke="none" d="&#10;M206.346176,310.395081 &#10;&#9;C205.013977,324.656342 207.479904,338.045746 210.787369,351.334961 &#10;&#9;C211.606354,354.625641 213.157043,357.492950 215.784348,359.799316 &#10;&#9;C221.158356,364.516968 226.421982,369.360321 231.735001,374.147491 &#10;&#9;C235.099579,377.179016 238.890762,379.588135 242.866043,381.721375 &#10;&#9;C276.263458,399.643433 311.585083,412.305573 348.810699,419.248077 &#10;&#9;C379.819000,425.031097 411.260803,427.254242 442.707703,425.224701 &#10;&#9;C452.158081,424.614807 457.647980,426.325134 461.966980,434.465485 &#10;&#9;C463.914825,438.136749 467.538666,440.918793 471.095703,444.875885 &#10;&#9;C467.214264,445.215607 464.182922,445.469666 461.153839,445.747894 &#10;&#9;C433.760284,448.264191 406.425934,449.133881 378.982330,445.618347 &#10;&#9;C346.162659,441.414185 314.100220,434.524689 283.284912,422.254120 &#10;&#9;C260.242340,413.078674 238.489944,401.854370 219.782593,385.164673 &#10;&#9;C203.736038,370.848785 196.492340,352.286377 192.764252,331.904816 &#10;&#9;C190.369385,318.811981 192.393188,306.074188 197.003036,293.704285 &#10;&#9;C199.744965,286.346649 203.920578,280.579041 209.508118,276.764984 &#10;&#9;C210.608994,288.419373 208.795761,299.198425 206.346176,310.395081 &#10;z"/>
<path fill="#317bc4" opacity="1.000000" stroke="none" d="&#10;M384.102966,545.185303 &#10;&#9;C382.407471,573.951050 383.644867,602.281738 383.396515,630.599182 &#10;&#9;C383.348419,636.082153 383.936249,641.569946 384.204163,647.056763 &#10;&#9;C384.342712,649.894470 385.731445,652.091675 387.605957,654.086487 &#10;&#9;C388.576263,655.119080 390.219421,655.751160 389.807281,658.076782 &#10;&#9;C383.024048,658.076782 376.135742,658.400818 369.304260,657.919189 &#10;&#9;C366.525665,657.723389 368.509338,654.054016 366.833893,651.985352 &#10;&#9;C362.769043,652.573730 359.186646,655.139038 355.457336,656.937805 &#10;&#9;C347.787781,660.636902 340.520050,659.529236 333.320312,656.236023 &#10;&#9;C319.061584,649.714111 310.982208,634.953857 311.677582,617.178284 &#10;&#9;C312.267975,602.086731 321.408722,589.594849 335.758636,584.056946 &#10;&#9;C343.708862,580.988831 351.740204,581.903687 359.804199,583.238892 &#10;&#9;C361.250916,583.478455 362.630646,584.211792 364.561188,583.612488 &#10;&#9;C364.561188,574.428894 364.703156,565.148010 364.480072,555.875916 &#10;&#9;C364.407166,552.844910 361.826294,551.465393 359.117981,550.652832 &#10;&#9;C357.848328,550.271851 356.317108,550.018188 356.363190,548.289001 &#10;&#9;C356.406738,546.654785 357.748901,546.140869 359.134064,545.924561 &#10;&#9;C365.745819,544.892212 372.004730,542.543396 378.364807,540.622864 &#10;&#9;C382.508209,539.371704 384.469177,540.157898 384.102966,545.185303 &#10;M332.599487,608.279541 &#10;&#9;C330.296326,618.344543 330.493835,628.133667 336.479248,637.013794 &#10;&#9;C342.453003,645.876709 354.668793,647.228577 362.756378,640.209167 &#10;&#9;C364.293854,638.874756 364.857635,637.327942 364.850220,635.398987 &#10;&#9;C364.807373,624.262817 364.776855,613.126709 364.764313,601.990540 &#10;&#9;C364.762299,600.212646 364.383148,598.644531 362.629211,597.836304 &#10;&#9;C350.968445,592.463013 335.555511,596.311523 332.599487,608.279541 &#10;z"/>
<path fill="#317bc4" opacity="1.000000" stroke="none" d="&#10;M438.150360,567.236206 &#10;&#9;C447.765869,551.850708 462.385956,545.283752 479.129608,543.038635 &#10;&#9;C489.189636,541.689758 499.398743,542.425049 509.398865,544.740967 &#10;&#9;C514.807617,545.993652 515.552490,547.078857 514.523376,552.593628 &#10;&#9;C513.891296,555.980835 513.374634,559.389465 512.701233,563.415710 &#10;&#9;C506.750610,561.505493 501.553101,558.945923 495.797211,557.938110 &#10;&#9;C473.378571,554.012939 453.859039,566.699097 450.349518,592.839233 &#10;&#9;C448.700775,605.120056 449.698486,617.124207 456.603058,627.902710 &#10;&#9;C463.150879,638.124268 472.834991,643.523254 484.735504,644.659973 &#10;&#9;C493.583191,645.505005 502.393280,645.071594 510.437225,640.442139 &#10;&#9;C510.943359,640.150879 511.677124,640.255066 512.661316,640.130005 &#10;&#9;C513.401306,644.366394 514.073059,648.417664 514.827698,652.453430 &#10;&#9;C515.270508,654.821411 513.547974,655.256531 511.974701,655.773865 &#10;&#9;C493.423248,661.874451 474.974762,662.365845 457.018433,653.859985 &#10;&#9;C444.937927,648.137512 437.057678,638.161133 432.922974,625.761047 &#10;&#9;C426.265778,605.795837 426.894287,586.137939 438.150360,567.236206 &#10;z"/>
<path fill="#317bc4" opacity="1.000000" stroke="none" d="&#10;M713.578735,597.154846 &#10;&#9;C709.631958,596.916565 706.194763,597.059265 702.903198,598.634094 &#10;&#9;C695.340454,602.252625 694.162292,604.746094 694.530701,613.114075 &#10;&#9;C694.874146,620.916077 694.381287,628.751221 694.432556,636.570679 &#10;&#9;C694.480530,643.894348 692.602173,651.741821 700.814331,657.107666 &#10;&#9;C700.372681,657.359192 699.931030,657.610657 699.489380,657.862183 &#10;&#9;C690.162598,657.862183 680.835815,657.862183 671.667480,657.862183 &#10;&#9;C671.127441,656.950867 671.059143,656.144287 671.643616,655.785645 &#10;&#9;C676.878052,652.574402 676.901062,647.557739 676.828552,642.225647 &#10;&#9;C676.636169,628.063660 676.645325,613.897156 676.760498,599.733887 &#10;&#9;C676.798828,595.012878 675.496948,591.253906 671.314087,588.733643 &#10;&#9;C669.666443,587.740967 668.276978,586.359741 668.947998,584.254822 &#10;&#9;C669.627258,582.124390 671.683533,582.776001 673.241028,582.706177 &#10;&#9;C678.715637,582.460449 684.218933,583.151611 689.666626,581.869751 &#10;&#9;C692.350952,581.238159 694.256775,582.096375 694.140808,585.412048 &#10;&#9;C694.103088,586.491089 693.859253,587.762756 695.158081,588.845337 &#10;&#9;C700.560486,585.446716 706.149048,582.093201 712.801270,581.656189 &#10;&#9;C730.952026,580.463928 741.632385,590.195801 743.396667,608.915955 &#10;&#9;C744.431763,619.898804 744.082336,630.887207 744.235046,641.871582 &#10;&#9;C744.308044,647.127319 744.819214,651.872559 749.842651,654.862488 &#10;&#9;C750.236877,655.097168 750.501221,655.609924 750.727661,656.044617 &#10;&#9;C750.869385,656.316528 750.826965,656.684326 750.866577,657.014038 &#10;&#9;C750.314026,658.417603 749.042053,658.306580 747.918640,658.307739 &#10;&#9;C741.753113,658.314026 735.587158,658.213379 729.422241,658.260071 &#10;&#9;C726.530334,658.281921 725.258606,657.219910 725.237122,654.135498 &#10;&#9;C725.138550,639.988525 724.933838,625.841003 724.616699,611.697144 &#10;&#9;C724.413147,602.615173 721.343994,598.594482 713.578735,597.154846 &#10;z"/>
<path fill="#317bc4" opacity="1.000000" stroke="none" d="&#10;M614.299072,586.331543 &#10;&#9;C614.489624,590.744446 616.628296,588.944458 618.221375,587.922058 &#10;&#9;C623.169617,584.746460 628.230225,581.955872 634.300720,581.686279 &#10;&#9;C652.286682,580.887634 662.801086,590.756287 663.335815,608.908875 &#10;&#9;C663.673767,620.385071 663.133606,631.861389 663.926636,643.355347 &#10;&#9;C664.284973,648.549561 666.077881,652.866394 669.165344,657.817444 &#10;&#9;C659.739136,657.817444 651.292969,657.817444 643.159241,657.817444 &#10;&#9;C646.383423,641.306091 644.614014,624.879700 644.615173,608.543335 &#10;&#9;C644.615784,600.167236 636.748108,594.954529 627.651062,597.716370 &#10;&#9;C618.033264,600.636353 614.550598,603.102417 615.142761,612.694519 &#10;&#9;C615.726501,622.151184 615.229492,631.672241 615.285950,641.164612 &#10;&#9;C615.319885,646.872864 613.919495,653.021301 619.742188,657.758057 &#10;&#9;C610.642395,657.758057 601.542603,657.758057 592.300964,657.758057 &#10;&#9;C592.336426,657.377258 592.201050,656.668457 592.448608,656.489380 &#10;&#9;C598.363220,652.212769 597.878418,645.989746 597.682068,639.795105 &#10;&#9;C597.260071,626.485413 598.132874,613.163696 597.180176,599.849304 &#10;&#9;C596.837585,595.061890 595.487305,591.151672 591.466064,588.266174 &#10;&#9;C590.029724,587.235474 588.349548,585.771667 589.174011,583.702942 &#10;&#9;C589.989441,581.657043 592.023804,582.592773 593.606628,582.612671 &#10;&#9;C598.761719,582.677612 603.905579,582.918091 609.026062,581.839355 &#10;&#9;C612.140259,581.183289 614.842224,581.621399 614.299072,586.331543 &#10;z"/>
<path fill="#317bc4" opacity="1.000000" stroke="none" d="&#10;M817.005371,654.107666 &#10;&#9;C805.011597,658.543884 793.311646,661.688354 780.696167,658.401855 &#10;&#9;C758.072327,652.508057 749.068909,635.139832 752.190552,614.218750 &#10;&#9;C755.023804,595.230347 765.890930,584.176392 783.573608,581.562683 &#10;&#9;C803.776489,578.576416 819.325256,592.213013 820.232910,611.032104 &#10;&#9;C820.874695,624.337158 820.856445,624.255493 807.631592,624.366394 &#10;&#9;C797.144409,624.454285 786.644897,623.945190 776.171875,624.866760 &#10;&#9;C774.723328,624.994202 773.133972,624.691650 771.763977,626.175293 &#10;&#9;C772.082703,632.653687 775.285156,637.551453 780.677979,641.247803 &#10;&#9;C785.936768,644.852112 791.841614,645.067383 797.920654,644.962463 &#10;&#9;C804.174377,644.854492 810.072937,643.669434 815.620972,639.654358 &#10;&#9;C817.969360,644.736877 816.967773,649.400085 817.005371,654.107666 &#10;M790.897156,594.865845 &#10;&#9;C779.460571,594.729858 771.769531,601.202271 771.340393,611.410583 &#10;&#9;C771.719116,611.641479 772.113342,612.068298 772.553650,612.122681 &#10;&#9;C781.320801,613.204834 790.124023,612.518555 798.912048,612.583801 &#10;&#9;C801.028442,612.599487 801.534302,611.059998 801.713928,609.197754 &#10;&#9;C802.322388,602.890625 798.423645,597.342529 790.897156,594.865845 &#10;z"/>
<path fill="#317bc4" opacity="1.000000" stroke="none" d="&#10;M532.720459,586.552917 &#10;&#9;C548.884949,577.165039 569.808594,582.956848 578.198364,591.661072 &#10;&#9;C587.000244,600.792786 589.095886,611.889282 588.305237,623.961792 &#10;&#9;C587.258057,639.950256 576.510498,653.549866 561.179382,658.248779 &#10;&#9;C545.766541,662.972717 529.049683,656.566223 520.435425,642.787842 &#10;&#9;C508.684723,623.992737 511.877319,596.961975 532.720459,586.552917 &#10;M542.644287,597.942932 &#10;&#9;C539.460693,599.346497 537.069397,601.709106 535.634155,604.764160 &#10;&#9;C530.997375,614.633179 531.012268,624.768005 535.257202,634.664978 &#10;&#9;C538.432922,642.069092 545.972961,646.277100 553.249329,645.632263 &#10;&#9;C560.489075,644.990662 566.313965,640.072998 568.309814,632.352173 &#10;&#9;C569.984375,625.873962 570.280518,619.262390 568.957764,612.620605 &#10;&#9;C566.149902,598.521179 556.867371,593.051086 542.644287,597.942932 &#10;z"/>
<path fill="#317bc4" opacity="1.000000" stroke="none" d="&#10;M305.185364,647.708801 &#10;&#9;C306.513977,651.808411 305.235657,653.784119 301.515167,655.173401 &#10;&#9;C291.059967,659.077454 280.634918,661.904114 269.466980,658.215332 &#10;&#9;C246.591156,650.659607 236.245132,631.397827 241.822739,608.004456 &#10;&#9;C246.895142,586.730164 268.269684,579.591553 283.402222,582.064758 &#10;&#9;C296.275574,584.168762 306.416626,596.974182 307.283112,611.190125 &#10;&#9;C308.080872,624.279297 308.081177,624.329163 295.109192,624.396729 &#10;&#9;C284.947845,624.449646 274.784393,624.446350 264.624603,624.290039 &#10;&#9;C260.496796,624.226562 259.754822,625.853882 260.960114,629.515625 &#10;&#9;C263.514984,637.277588 271.829468,643.901367 280.369873,644.697449 &#10;&#9;C287.664276,645.377319 294.656494,644.514404 301.114502,640.755981 &#10;&#9;C301.793030,640.361145 302.627563,640.234375 303.407532,639.977356 &#10;&#9;C305.179962,642.286621 304.737457,644.891541 305.185364,647.708801 &#10;M288.738525,606.867981 &#10;&#9;C286.356842,597.376099 281.498657,593.945557 272.119598,595.340637 &#10;&#9;C265.193634,596.370789 262.370667,601.570740 260.132965,607.393250 &#10;&#9;C258.973907,610.409119 259.765198,611.523926 262.996368,611.914612 &#10;&#9;C269.972626,612.757935 276.956238,612.556946 283.943970,612.695801 &#10;&#9;C287.576965,612.768005 289.304169,611.411621 288.738525,606.867981 &#10;z"/>
<path fill="#317bc4" opacity="1.000000" stroke="none" d="&#10;M383.308838,336.058167 &#10;&#9;C383.422363,339.757172 383.009216,342.914581 385.951965,345.658081 &#10;&#9;C387.837036,347.415527 385.719788,355.202789 383.751221,356.066498 &#10;&#9;C379.757843,357.818573 374.668823,356.044800 372.898010,352.297028 &#10;&#9;C371.194427,348.691559 369.576782,345.081146 366.451080,342.336334 &#10;&#9;C355.977509,333.139008 340.218689,337.144165 336.376373,350.531738 &#10;&#9;C334.946777,355.512817 332.681519,356.518951 328.067596,356.423309 &#10;&#9;C316.859314,356.190948 316.828613,356.392365 316.852356,345.431122 &#10;&#9;C316.887970,328.971680 317.069885,312.511536 316.951111,296.053406 &#10;&#9;C316.921234,291.916656 318.316956,290.351807 322.442291,290.618011 &#10;&#9;C326.752808,290.896149 331.156616,291.215363 335.405151,290.652344 &#10;&#9;C343.860168,289.531921 349.289612,293.348602 353.373047,300.186768 &#10;&#9;C354.991394,302.896881 356.998993,305.373993 358.627533,308.078674 &#10;&#9;C362.592316,314.663452 367.616333,320.002350 374.979065,322.798737 &#10;&#9;C380.861725,325.032990 383.345459,329.514099 383.308838,336.058167 &#10;M327.334198,313.335510 &#10;&#9;C327.759888,315.581696 326.036957,319.263306 329.508911,319.627838 &#10;&#9;C337.311218,320.447052 345.201630,321.393982 353.811005,320.112091 &#10;&#9;C350.151855,312.991669 345.291138,307.523468 341.435211,301.419128 &#10;&#9;C340.879974,300.540131 339.754578,300.501068 338.736755,300.386597 &#10;&#9;C329.710632,299.371887 327.299500,301.473969 327.324310,310.396606 &#10;&#9;C327.326172,311.061615 327.329102,311.726654 327.334198,313.335510 &#10;z"/>
<path fill="#317bc4" opacity="1.000000" stroke="none" d="&#10;M842.329102,619.926880 &#10;&#9;C841.765625,635.140991 855.542725,648.202332 875.247925,643.268738 &#10;&#9;C877.851624,642.616821 880.295654,641.725525 882.592285,640.273804 &#10;&#9;C885.107910,638.683472 886.700073,639.535889 886.957947,642.547607 &#10;&#9;C887.213440,645.531982 887.337585,648.529480 887.669128,651.504578 &#10;&#9;C887.849487,653.123169 887.199341,654.025146 885.807678,654.596375 &#10;&#9;C870.135376,661.028625 854.542114,662.844788 839.596680,652.845459 &#10;&#9;C826.921265,644.364990 822.579712,632.056091 823.084595,617.090759 &#10;&#9;C823.990601,590.233704 854.554016,574.531189 878.293823,583.178589 &#10;&#9;C880.009155,583.803406 881.779114,584.284241 883.537231,584.784180 &#10;&#9;C884.988586,585.196838 886.058777,585.974487 885.635010,587.608337 &#10;&#9;C884.603088,591.586731 884.700623,595.858582 882.671814,599.720642 &#10;&#9;C871.456665,596.203857 860.124084,593.111755 849.689453,600.711975 &#10;&#9;C843.657043,605.105774 841.941895,612.098328 842.329102,619.926880 &#10;z"/>
<path fill="#317bc4" opacity="1.000000" stroke="none" d="&#10;M920.276367,659.100037 &#10;&#9;C905.097717,657.804077 895.713623,644.862000 896.644958,630.502625 &#10;&#9;C897.247192,621.217407 896.672729,611.861206 896.885864,602.542786 &#10;&#9;C896.975525,598.624207 895.902466,596.574829 891.604797,596.842468 &#10;&#9;C887.987244,597.067871 886.720703,595.200073 888.192932,591.833618 &#10;&#9;C888.985229,590.021912 889.600281,587.610840 891.060791,586.706848 &#10;&#9;C896.370911,583.420166 896.912231,578.214539 897.531799,572.909302 &#10;&#9;C897.703613,571.438538 897.444031,569.611511 898.950623,568.845459 &#10;&#9;C903.963501,566.296631 908.017212,562.270752 913.040100,559.256775 &#10;&#9;C914.954468,561.911743 914.223145,564.466553 914.296997,566.829407 &#10;&#9;C914.421875,570.821045 914.414490,574.821411 914.309875,578.814087 &#10;&#9;C914.237671,581.572205 915.370789,582.744080 918.150024,582.685303 &#10;&#9;C922.642700,582.590149 927.144043,582.810791 931.632568,582.646118 &#10;&#9;C934.914917,582.525757 935.953247,583.944824 936.047729,587.079041 &#10;&#9;C936.308167,595.720886 936.361206,595.786133 928.163269,596.556152 &#10;&#9;C926.012268,596.758240 923.857056,596.946167 921.699341,597.035034 &#10;&#9;C919.745972,597.115540 917.786560,597.052124 915.493164,597.052124 &#10;&#9;C915.493164,609.784424 914.939453,622.090027 915.687866,634.315979 &#10;&#9;C916.186523,642.463196 923.604919,646.477295 931.442322,643.760376 &#10;&#9;C935.143677,642.477295 936.590698,643.177979 936.924133,647.139954 &#10;&#9;C937.664978,655.941223 937.157837,656.816345 928.611145,658.271912 &#10;&#9;C926.002563,658.716187 923.344177,658.868713 920.276367,659.100037 &#10;z"/>
<path fill="#317bc4" opacity="1.000000" stroke="none" d="&#10;M260.619629,227.583817 &#10;&#9;C281.274078,212.468246 302.898193,199.769867 326.307098,190.232819 &#10;&#9;C329.497040,188.933167 333.610168,186.618500 336.155853,188.922379 &#10;&#9;C338.992981,191.490036 337.015839,196.166916 337.013336,199.916794 &#10;&#9;C337.011719,202.339417 335.039795,203.060196 333.021057,203.704880 &#10;&#9;C300.655365,214.040649 274.690582,234.358810 250.186157,256.934601 &#10;&#9;C249.213562,257.830627 248.481445,258.916107 247.026306,259.205353 &#10;&#9;C245.053787,259.597443 228.810242,259.203644 225.543045,258.388947 &#10;&#9;C235.648788,246.127182 248.497910,237.523270 260.619629,227.583817 &#10;z"/>
<path fill="#317bc4" opacity="1.000000" stroke="none" d="&#10;M426.690002,655.414795 &#10;&#9;C428.365173,657.305237 427.513855,657.996521 425.822571,658.224609 &#10;&#9;C425.003571,658.335083 424.161621,658.289612 423.330048,658.289917 &#10;&#9;C413.560089,658.293396 403.790131,658.292175 394.312653,658.292175 &#10;&#9;C393.579651,656.800964 394.011139,656.021179 394.658752,655.526428 &#10;&#9;C399.176605,652.075500 399.767883,647.132263 399.563660,642.068604 &#10;&#9;C398.993683,627.936829 399.111664,613.810242 399.664978,599.688049 &#10;&#9;C399.859497,594.723267 398.513977,590.918152 393.734955,588.682373 &#10;&#9;C392.309143,588.015381 390.482452,587.011658 391.033478,584.975037 &#10;&#9;C391.616821,582.819214 393.619324,583.293579 395.223724,583.459778 &#10;&#9;C402.723999,584.236572 410.066742,582.601990 417.371307,581.864624 &#10;&#9;C418.952271,583.613342 418.281921,585.520142 418.286804,587.260254 &#10;&#9;C418.337738,605.397034 418.344879,623.533997 418.328857,641.670898 &#10;&#9;C418.323425,647.809448 420.123383,652.812378 426.690002,655.414795 &#10;z"/>
<path fill="#317bc4" opacity="1.000000" stroke="none" d="&#10;M541.502563,481.130829 &#10;&#9;C536.117554,493.099884 526.127991,497.902100 514.423767,497.853394 &#10;&#9;C503.551178,497.808167 494.721680,492.471924 489.608582,482.168610 &#10;&#9;C486.482361,475.869049 487.440216,469.492584 489.172638,463.201996 &#10;&#9;C490.068756,459.948303 493.036285,459.773834 495.712006,462.920990 &#10;&#9;C499.746857,467.666718 504.272949,471.739777 509.648163,474.876831 &#10;&#9;C515.827271,478.483063 517.979797,478.305084 523.597961,473.983246 &#10;&#9;C527.226807,471.191742 529.945740,467.635529 532.353760,463.833313 &#10;&#9;C533.717712,461.679596 535.346436,460.260437 538.007935,460.563538 &#10;&#9;C540.960571,460.899750 541.668823,463.384552 542.078552,465.591614 &#10;&#9;C543.015991,470.641510 543.975952,475.773956 541.502563,481.130829 &#10;z"/>
<path fill="#317bc4" opacity="1.000000" stroke="none" d="&#10;M264.125427,364.831879 &#10;&#9;C255.038986,377.019409 242.506638,377.428162 235.850403,366.076538 &#10;&#9;C231.860077,359.271393 233.411545,350.889435 239.684860,345.360718 &#10;&#9;C244.903809,340.761230 253.708038,340.192963 259.157562,344.103882 &#10;&#9;C265.368103,348.560913 267.623810,357.475922 264.125427,364.831879 &#10;M247.445038,351.003326 &#10;&#9;C245.867981,351.847809 244.862839,353.246887 244.596130,354.908112 &#10;&#9;C244.046478,358.331757 244.882019,361.585236 248.552765,362.450714 &#10;&#9;C251.922821,363.245331 254.327866,360.983582 255.271301,357.837891 &#10;&#9;C256.384857,354.125031 252.934830,350.853516 247.445038,351.003326 &#10;z"/>
<path fill="#317bc4" opacity="1.000000" stroke="none" d="&#10;M357.422974,341.992798 &#10;&#9;C365.064087,344.380615 369.824158,350.388000 370.291901,357.820557 &#10;&#9;C370.630249,363.196991 365.664764,370.218903 359.619019,372.913544 &#10;&#9;C353.497192,375.642059 345.369629,372.832825 341.372620,366.606812 &#10;&#9;C337.107361,359.962860 338.147614,351.237335 343.755035,346.035126 &#10;&#9;C347.534698,342.528625 351.843445,340.871185 357.422974,341.992798 &#10;M359.788635,357.462311 &#10;&#9;C359.561768,356.505920 359.509674,355.460297 359.075531,354.609741 &#10;&#9;C357.731201,351.976257 355.976898,349.561951 352.554138,351.052063 &#10;&#9;C349.506409,352.378784 348.806274,355.081787 349.757172,358.123383 &#10;&#9;C350.446960,360.329834 351.259613,363.039459 353.885590,363.149017 &#10;&#9;C356.909576,363.275146 359.119965,361.419220 359.788635,357.462311 &#10;z"/>
<path fill="#317bc4" opacity="1.000000" stroke="none" d="&#10;M411.524658,547.784668 &#10;&#9;C419.172638,551.157593 422.292328,557.648865 419.858734,564.318176 &#10;&#9;C417.833191,569.869263 412.463348,573.112366 406.968109,572.103394 &#10;&#9;C400.801880,570.971252 396.536835,565.642273 396.730286,559.311829 &#10;&#9;C396.904266,553.618347 401.466431,548.494019 407.144653,547.736694 &#10;&#9;C408.443726,547.563416 409.787323,547.723572 411.524658,547.784668 &#10;z"/>
<path fill="#317bc4" opacity="1.000000" stroke="none" d="&#10;M451.062195,186.068130 &#10;&#9;C442.760040,193.995712 437.888092,203.558151 434.416412,213.952682 &#10;&#9;C431.041718,224.056839 432.352844,234.888763 430.070435,246.621948 &#10;&#9;C418.930206,229.848114 409.760651,213.895142 408.884521,194.766617 &#10;&#9;C408.314301,182.316833 407.959473,169.815170 410.422241,157.414429 &#10;&#9;C412.305786,147.930145 416.996124,139.646576 420.979401,131.072586 &#10;&#9;C422.727600,127.309639 427.185394,126.319389 430.532898,124.305054 &#10;&#9;C432.259552,123.266052 434.098633,122.456726 435.258698,120.788017 &#10;&#9;C441.727203,111.483086 450.325623,104.410210 459.258362,97.669807 &#10;&#9;C460.296448,96.886482 461.178070,95.895821 461.801178,95.311668 &#10;&#9;C462.471954,93.050095 459.841583,92.705223 460.200439,91.011597 &#10;&#9;C492.211792,66.248863 554.380188,72.070480 587.731628,106.028221 &#10;&#9;C626.720642,145.725922 626.421509,207.740570 595.461548,245.332718 &#10;&#9;C597.469177,205.943512 579.827393,180.796585 542.273499,168.942108 &#10;&#9;C554.517700,155.955124 559.702332,141.956268 554.899231,125.279640 &#10;&#9;C551.876282,114.783768 544.721741,107.756882 536.480896,101.144226 &#10;&#9;C524.847412,91.809258 498.162537,93.054115 485.944336,104.193893 &#10;&#9;C479.976959,109.634514 475.648407,116.333366 473.674255,124.405174 &#10;&#9;C471.742218,132.304535 471.255493,140.157257 473.299530,148.089920 &#10;&#9;C475.331970,155.977554 479.659363,162.538696 485.931488,168.445786 &#10;&#9;C472.799957,172.330826 460.766113,176.559708 451.062195,186.068130 &#10;z"/>
<path fill="#317bc4" opacity="1.000000" stroke="none" d="&#10;M456.144867,265.915741 &#10;&#9;C443.465485,256.792267 443.636932,256.791992 443.612823,241.413620 &#10;&#9;C443.594299,229.589310 445.960358,218.389130 450.245758,207.388687 &#10;&#9;C456.656677,190.932068 481.397369,175.143555 498.155426,179.357132 &#10;&#9;C508.212646,181.885849 518.642334,179.892883 528.922485,179.773331 &#10;&#9;C556.778442,179.449326 578.372437,198.893372 581.298523,226.469345 &#10;&#9;C582.140198,234.401398 582.320312,242.407516 583.280823,250.321777 &#10;&#9;C583.937317,255.732025 581.605835,259.228363 577.571594,262.124176 &#10;&#9;C565.687378,270.654785 552.972900,277.331635 538.369446,279.890106 &#10;&#9;C519.832153,283.137756 501.372345,283.473816 483.119812,278.242950 &#10;&#9;C473.652954,275.529907 464.559509,271.864929 456.144867,265.915741 &#10;z"/>
<path fill="#317bc4" opacity="1.000000" stroke="none" d="&#10;M496.562866,161.553711 &#10;&#9;C486.684570,152.887268 483.181030,141.957382 485.721069,129.886688 &#10;&#9;C488.166138,118.267166 495.998901,110.305153 507.923767,108.255470 &#10;&#9;C519.167542,106.322861 529.509521,109.173790 536.851501,118.706223 &#10;&#9;C544.448059,128.569153 545.496643,139.378998 540.026062,150.555283 &#10;&#9;C534.952209,160.920975 526.297791,165.930801 514.858154,166.394318 &#10;&#9;C508.379517,166.656830 502.294128,165.513733 496.562866,161.553711 &#10;z"/>
<path fill="#317bc4" opacity="1.000000" stroke="none" d="&#10;M738.097290,417.142151 &#10;&#9;C740.703979,416.834808 743.011169,416.756714 745.319092,416.710968 &#10;&#9;C747.402954,416.669617 748.541260,417.800842 748.240967,419.790588 &#10;&#9;C747.397522,425.378998 750.390869,426.292633 754.940491,425.648346 &#10;&#9;C755.871704,425.516449 756.860413,425.790741 757.780762,425.874023 &#10;&#9;C759.164612,428.604187 758.293274,431.272369 758.302734,433.873108 &#10;&#9;C758.311279,436.216949 756.566589,436.384491 754.828125,436.392151 &#10;&#9;C750.893860,436.409424 747.895569,437.333191 748.273315,442.263611 &#10;&#9;C748.475708,444.905945 746.427307,445.714966 744.361389,445.785400 &#10;&#9;C742.107361,445.862274 739.088318,445.996216 738.821350,442.958496 &#10;&#9;C738.385193,437.995148 736.086548,437.023407 731.361755,436.935608 &#10;&#9;C727.124390,436.856873 728.567017,432.060150 727.936401,429.304626 &#10;&#9;C727.441956,427.143951 729.346680,425.746277 731.384521,426.222504 &#10;&#9;C737.515930,427.655365 738.338440,424.709534 737.273682,419.738953 &#10;&#9;C737.120667,419.024719 737.607483,418.173401 738.097290,417.142151 &#10;z"/>
</svg>